<svg xmlns="http://www.w3.org/2000/svg" xmlns:xlink="http://www.w3.org/1999/xlink" width="143" zoomAndPan="magnify" viewBox="0 0 107.25 44.999999" height="60" preserveAspectRatio="xMidYMid meet" version="1.2"><defs><clipPath id="f91b9feede"><path d="M 5 0.15625 L 106 0.15625 L 106 37 L 5 37 Z M 5 0.15625 "/></clipPath></defs><g id="f488a69608"><g clip-rule="nonzero" clip-path="url(#f91b9feede)"><path style=" stroke:none;fill-rule:nonzero;fill:#5db455;fill-opacity:1;" d="M 6.542969 9.433594 C 12.015625 9.492188 17.484375 9.425781 22.957031 9.617188 C 28.707031 9.820312 34.449219 10.191406 40.183594 10.667969 C 51.457031 11.605469 62.6875 13 73.917969 14.34375 C 74.414062 14.402344 74.820312 13.960938 74.96875 13.542969 C 76.316406 9.714844 75.488281 5.664062 76.503906 1.804688 C 75.96875 2.023438 75.433594 2.242188 74.898438 2.457031 C 83.871094 8.714844 95.582031 10.0625 103.75 17.621094 C 103.824219 17.03125 103.902344 16.445312 103.976562 15.855469 C 95.289062 21.496094 87.636719 28.5625 78.953125 34.207031 C 79.515625 34.4375 80.078125 34.667969 80.640625 34.894531 C 79.851562 32.835938 79.28125 30.726562 78.699219 28.605469 C 78.351562 27.339844 77.933594 25.96875 76.929688 25.058594 C 75.792969 24.023438 74.179688 23.878906 72.710938 23.882812 C 69.589844 23.894531 66.46875 24.570312 63.378906 24.949219 C 55.433594 25.933594 47.484375 25.929688 39.496094 25.683594 C 31.542969 25.441406 23.566406 25.121094 15.628906 25.910156 C 13.332031 26.136719 11.046875 26.476562 8.78125 26.921875 C 9.265625 27.402344 9.746094 27.886719 10.226562 28.367188 C 11.265625 21.921875 10.921875 14.84375 7.558594 9.085938 C 6.792969 7.777344 4.757812 8.960938 5.527344 10.273438 C 8.554688 15.457031 8.894531 21.929688 7.960938 27.742188 C 7.8125 28.652344 8.46875 29.375 9.40625 29.1875 C 25.144531 26.105469 41.261719 29.011719 57.136719 27.890625 C 61.089844 27.613281 64.988281 27.015625 68.917969 26.515625 C 70.765625 26.28125 72.945312 25.871094 74.773438 26.425781 C 75.136719 26.535156 75.441406 26.78125 75.609375 27.019531 C 75.964844 27.519531 76.140625 28.105469 76.316406 28.683594 C 76.917969 30.644531 77.382812 32.636719 78.074219 34.570312 C 78.183594 34.886719 78.304688 35.195312 78.421875 35.507812 C 78.675781 36.164062 79.441406 36.632812 80.113281 36.195312 C 88.792969 30.539062 96.433594 23.457031 105.113281 17.796875 C 105.695312 17.417969 105.894531 16.542969 105.339844 16.03125 C 96.972656 8.320312 85.164062 6.941406 76 0.566406 C 75.417969 0.160156 74.5625 0.578125 74.394531 1.222656 C 73.378906 5.085938 74.207031 9.148438 72.867188 12.964844 C 73.21875 12.695312 73.566406 12.429688 73.917969 12.164062 C 62.84375 10.851562 51.773438 9.5 40.660156 8.5625 C 34.925781 8.078125 29.183594 7.710938 23.433594 7.546875 C 17.804688 7.386719 12.148438 7.316406 6.542969 7.886719 C 5.570312 7.984375 5.527344 9.421875 6.542969 9.433594 Z M 6.542969 9.433594 "/></g><path style=" stroke:none;fill-rule:nonzero;fill:#5db455;fill-opacity:1;" d="M 4.015625 9.195312 C 2.683594 10.398438 1.84375 12 1.03125 13.574219 C 0.71875 14.191406 0.00390625 15.097656 0.00390625 15.804688 C 0.00390625 16.941406 0.441406 18.21875 0.671875 19.332031 C 1.632812 23.945312 2.953125 28.480469 4.535156 32.921875 C 4.851562 33.8125 6.265625 33.976562 6.507812 32.921875 C 6.847656 31.433594 7.523438 30.101562 8.292969 28.792969 C 8.957031 27.664062 10.164062 26.503906 10.488281 25.234375 C 10.683594 24.46875 9.84375 23.777344 9.140625 24.199219 C 7.960938 24.910156 7.179688 26.582031 6.488281 27.738281 C 5.632812 29.175781 4.894531 30.738281 4.535156 32.375 C 5.191406 32.375 5.851562 32.375 6.507812 32.375 C 4.5 26.898438 2.910156 21.292969 1.816406 15.558594 C 1.785156 15.796875 1.753906 16.03125 1.722656 16.269531 C 2.707031 14.183594 3.519531 11.976562 4.984375 10.160156 C 5.527344 9.488281 4.683594 8.597656 4.015625 9.195312 Z M 4.015625 9.195312 "/><path style=" stroke:none;fill-rule:nonzero;fill:#5db455;fill-opacity:1;" d="M 4.5 33.542969 C 7.378906 33.6875 10.203125 33.945312 13.089844 33.925781 C 15.945312 33.90625 18.796875 33.859375 21.648438 33.804688 C 27.332031 33.691406 33.019531 33.460938 38.699219 33.210938 C 50.101562 32.703125 61.496094 32.066406 72.898438 31.5625 C 73.425781 31.539062 73.84375 31.144531 73.851562 30.609375 C 73.882812 28.558594 74.425781 26.523438 74.355469 24.484375 C 74.3125 23.25 72.546875 23.273438 72.460938 24.484375 C 72.3125 26.523438 71.972656 28.558594 71.941406 30.609375 C 72.261719 30.289062 72.578125 29.96875 72.898438 29.652344 C 61.496094 30.164062 50.101562 30.804688 38.699219 31.324219 C 33.015625 31.582031 27.332031 31.796875 21.648438 32.003906 C 18.796875 32.105469 15.945312 32.191406 13.089844 32.257812 C 10.210938 32.328125 7.371094 32.628906 4.5 32.777344 C 4.003906 32.800781 4.003906 33.519531 4.5 33.542969 Z M 4.5 33.542969 "/><path style=" stroke:none;fill-rule:nonzero;fill:#5db455;fill-opacity:1;" d="M 73.28125 2.320312 C 71.484375 3.289062 70.390625 5.4375 69.734375 7.292969 C 68.960938 9.480469 69.367188 11.785156 70.535156 13.738281 C 71.183594 14.820312 72.925781 13.75 72.195312 12.765625 C 70.953125 11.089844 70.859375 9.304688 71.433594 7.347656 C 71.933594 5.648438 73.136719 4.277344 73.648438 2.601562 C 73.714844 2.382812 73.46875 2.21875 73.28125 2.320312 Z M 73.28125 2.320312 "/><path style=" stroke:none;fill-rule:nonzero;fill:#5db455;fill-opacity:1;" d="M 71.617188 31.191406 C 72.898438 35.226562 73.34375 39.457031 75.160156 43.324219 C 75.519531 44.082031 76.640625 43.816406 76.851562 43.105469 C 77.914062 39.503906 78.792969 35.722656 82.054688 33.472656 C 83.058594 32.777344 82.191406 31.253906 81.09375 31.828125 C 77.214844 33.855469 76.117188 38.753906 75.070312 42.613281 C 75.632812 42.539062 76.195312 42.464844 76.757812 42.390625 C 74.902344 38.667969 74.460938 34.46875 72.109375 30.984375 C 71.945312 30.738281 71.519531 30.886719 71.617188 31.191406 Z M 71.617188 31.191406 "/><path style=" stroke:none;fill-rule:nonzero;fill:#5db455;fill-opacity:1;" d="M 75.449219 42.75 C 76.867188 42.847656 78.375 42.011719 79.613281 41.398438 C 81.144531 40.632812 82.589844 39.699219 83.996094 38.726562 C 87.0625 36.605469 89.890625 34.140625 92.550781 31.527344 C 95.121094 28.996094 97.507812 26.273438 99.722656 23.421875 C 100.710938 22.152344 101.65625 20.847656 102.5625 19.515625 C 103.335938 18.375 104.617188 16.902344 104.835938 15.515625 C 104.96875 14.6875 104.109375 14.140625 103.445312 14.707031 C 102.503906 15.507812 101.9375 16.957031 101.265625 17.992188 C 100.382812 19.355469 99.429688 20.679688 98.449219 21.980469 C 96.332031 24.789062 93.992188 27.433594 91.527344 29.941406 C 89.015625 32.496094 86.3125 34.878906 83.410156 36.980469 C 82.015625 37.988281 80.554688 38.890625 79.066406 39.757812 C 77.804688 40.492188 76.207031 41.03125 75.164062 42.0625 C 74.898438 42.324219 75.109375 42.726562 75.449219 42.75 Z M 75.449219 42.75 "/><path style=" stroke:none;fill-rule:nonzero;fill:#5db455;fill-opacity:1;" d="M 4.496094 11.957031 C 4.191406 13.933594 3.441406 15.808594 2.75 17.675781 C 2.40625 18.597656 1.226562 21.023438 2.714844 21.546875 C 3.125 21.695312 3.660156 21.308594 3.613281 20.863281 C 3.492188 19.644531 4.222656 18.203125 4.648438 17.011719 C 5.210938 15.445312 5.945312 13.652344 5.613281 11.957031 C 5.507812 11.410156 4.585938 11.390625 4.496094 11.957031 Z M 4.496094 11.957031 "/><path style=" stroke:none;fill-rule:nonzero;fill:#5db455;fill-opacity:1;" d="M 7.398438 13.207031 C 7.339844 13.449219 7.054688 13.800781 6.949219 14.070312 C 6.734375 14.621094 6.628906 15.238281 6.476562 15.808594 C 6.070312 17.34375 5.636719 18.875 5.203125 20.402344 C 4.851562 21.636719 4.484375 22.871094 4.105469 24.097656 C 3.980469 24.511719 3.832031 25.058594 4.179688 25.414062 C 3.957031 25.1875 4 25.070312 4.097656 25.4375 C 4.164062 25.691406 4.074219 25.640625 4.148438 25.40625 C 4.007812 25.855469 4.710938 26.046875 4.851562 25.601562 C 4.753906 25.910156 4.652344 25.816406 4.804688 25.726562 C 4.933594 25.648438 5.144531 25.542969 4.875 25.597656 C 5.339844 25.503906 5.515625 24.898438 5.632812 24.519531 C 6.03125 23.199219 6.414062 21.871094 6.78125 20.542969 C 7.179688 19.097656 7.542969 17.652344 7.804688 16.175781 C 7.90625 15.589844 7.984375 15.003906 8.019531 14.410156 C 8.050781 13.917969 7.816406 13.632812 7.726562 13.207031 C 7.691406 13.042969 7.441406 13.050781 7.398438 13.207031 Z M 7.398438 13.207031 "/><path style=" stroke:none;fill-rule:nonzero;fill:#5db455;fill-opacity:1;" d="M 7.921875 20.3125 C 6.738281 23.058594 5.683594 26.09375 5.34375 29.078125 C 5.253906 29.855469 6.519531 30 6.695312 29.257812 C 7.375 26.414062 8.242188 23.335938 8.246094 20.398438 C 8.246094 20.238281 7.992188 20.144531 7.921875 20.3125 Z M 7.921875 20.3125 "/><path style=" stroke:none;fill-rule:nonzero;fill:#5db455;fill-opacity:1;" d="M 13.917969 28.59375 C 12.90625 29.300781 11.296875 31.019531 11.902344 32.394531 C 12.003906 32.621094 12.28125 32.730469 12.507812 32.742188 C 12.515625 32.742188 12.527344 32.742188 12.535156 32.742188 C 12.84375 32.757812 13.070312 32.527344 13.167969 32.257812 C 13.191406 32.203125 13.214844 31.667969 13.171875 31.964844 C 13.203125 31.757812 13.296875 31.539062 13.386719 31.347656 C 13.722656 30.628906 14.246094 30.015625 14.679688 29.359375 C 14.980469 28.902344 14.375 28.273438 13.917969 28.59375 Z M 13.917969 28.59375 "/><path style=" stroke:none;fill-rule:nonzero;fill:#5db455;fill-opacity:1;" d="M 17.570312 27.710938 C 16.753906 28.179688 16.257812 28.992188 15.796875 29.789062 C 15.5 30.300781 14.867188 31.253906 15.304688 31.847656 C 15.457031 32.050781 15.628906 32.121094 15.878906 32.082031 C 16.480469 31.988281 16.734375 31.167969 16.949219 30.664062 C 17.296875 29.847656 17.710938 29.046875 18.117188 28.257812 C 18.292969 27.90625 17.929688 27.503906 17.570312 27.710938 Z M 17.570312 27.710938 "/><path style=" stroke:none;fill-rule:nonzero;fill:#5db455;fill-opacity:1;" d="M 20.160156 27.265625 C 19.15625 27.957031 18.222656 28.871094 17.921875 30.097656 C 17.695312 31.015625 18.550781 32.082031 19.484375 31.429688 C 19.660156 31.304688 19.742188 31.027344 19.554688 30.863281 C 19.5 30.8125 19.4375 30.761719 19.375 30.714844 C 19.046875 30.496094 19.503906 30.992188 19.257812 30.601562 C 19.148438 30.425781 19.269531 30.167969 19.324219 30 C 19.585938 29.199219 20.148438 28.410156 20.601562 27.707031 C 20.777344 27.441406 20.429688 27.082031 20.160156 27.265625 Z M 20.160156 27.265625 "/><path style=" stroke:none;fill-rule:nonzero;fill:#5db455;fill-opacity:1;" d="M 22.621094 27.398438 C 21.992188 28.464844 21.332031 29.734375 21.550781 31.019531 C 21.675781 31.746094 22.441406 32.46875 23.144531 31.894531 C 23.3125 31.757812 23.265625 31.507812 23.144531 31.359375 C 22.308594 30.34375 22.742188 28.746094 23.160156 27.621094 C 23.277344 27.304688 22.785156 27.117188 22.621094 27.398438 Z M 22.621094 27.398438 "/><path style=" stroke:none;fill-rule:nonzero;fill:#5db455;fill-opacity:1;" d="M 26.625 28.742188 C 26.042969 29.257812 25.578125 29.859375 25.234375 30.554688 C 25.015625 31 24.675781 31.71875 24.863281 32.222656 C 25.039062 32.695312 25.652344 32.816406 25.9375 32.363281 C 26.144531 32.035156 26.203125 31.558594 26.328125 31.1875 C 26.542969 30.5625 26.875 29.925781 27.292969 29.410156 C 27.675781 28.941406 27.085938 28.328125 26.625 28.742188 Z M 26.625 28.742188 "/><path style=" stroke:none;fill-rule:nonzero;fill:#5db455;fill-opacity:1;" d="M 31.851562 27.84375 C 30.921875 29.027344 30.398438 30.4375 30.46875 31.953125 C 30.5 32.699219 31.574219 32.691406 31.617188 31.953125 C 31.695312 30.628906 31.71875 29.429688 32.320312 28.207031 C 32.460938 27.921875 32.074219 27.5625 31.851562 27.84375 Z M 31.851562 27.84375 "/><path style=" stroke:none;fill-rule:nonzero;fill:#5db455;fill-opacity:1;" d="M 35.359375 29.511719 C 35.128906 30.292969 34.886719 31.480469 35.132812 32.15625 C 35.316406 32.652344 35.957031 32.652344 36.140625 32.15625 C 36.386719 31.480469 36.144531 30.292969 35.914062 29.511719 C 35.832031 29.234375 35.4375 29.234375 35.359375 29.511719 Z M 35.359375 29.511719 "/><path style=" stroke:none;fill-rule:nonzero;fill:#5db455;fill-opacity:1;" d="M 42.058594 27.332031 C 41.296875 28.011719 40.421875 28.878906 40.316406 29.949219 C 40.226562 30.855469 41.222656 31.167969 41.902344 30.847656 C 42.09375 30.757812 42.074219 30.464844 41.902344 30.367188 C 41.523438 30.148438 41.289062 30.050781 41.386719 29.578125 C 41.527344 28.894531 42.046875 28.273438 42.484375 27.757812 C 42.730469 27.464844 42.351562 27.074219 42.058594 27.332031 Z M 42.058594 27.332031 "/><path style=" stroke:none;fill-rule:nonzero;fill:#5db455;fill-opacity:1;" d="M 9.242188 28.355469 C 8.160156 29.871094 7.382812 31.691406 6.765625 33.449219 C 6.628906 33.828125 6.863281 34.167969 7.144531 34.386719 C 8.511719 35.441406 9.960938 32.570312 8.632812 32.101562 C 8.289062 31.980469 7.96875 32.191406 7.773438 32.453125 C 7.671875 32.574219 7.585938 32.707031 7.511719 32.851562 C 7.429688 32.996094 7.140625 33.257812 7.417969 33.089844 C 7.632812 33.0625 7.847656 33.03125 8.058594 33.003906 C 8.035156 32.988281 8.007812 32.972656 7.980469 32.953125 C 8.109375 33.265625 8.234375 33.578125 8.363281 33.890625 C 8.957031 32.140625 9.9375 30.433594 10.023438 28.566406 C 10.042969 28.117188 9.464844 28.039062 9.242188 28.355469 Z M 9.242188 28.355469 "/><path style=" stroke:none;fill-rule:nonzero;fill:#5db455;fill-opacity:1;" d="M 45.203125 27.832031 C 44.734375 28.148438 44.613281 28.488281 44.398438 28.996094 C 44.222656 29.410156 44.015625 29.808594 43.902344 30.246094 C 43.667969 31.164062 44.378906 32.042969 45.347656 31.730469 C 45.890625 31.554688 45.96875 30.867188 45.5 30.558594 C 45.324219 30.441406 45.46875 30.539062 45.453125 30.671875 C 45.488281 30.40625 45.605469 30.140625 45.6875 29.886719 C 45.785156 29.558594 45.859375 29.238281 45.902344 28.894531 C 45.960938 28.410156 45.863281 28.21875 45.519531 27.871094 C 45.441406 27.792969 45.300781 27.765625 45.203125 27.832031 Z M 45.203125 27.832031 "/><path style=" stroke:none;fill-rule:nonzero;fill:#5db455;fill-opacity:1;" d="M 50.726562 26.65625 C 49.316406 27.71875 48.117188 29.167969 47.632812 30.90625 C 47.398438 31.75 48.71875 32.359375 49.082031 31.519531 C 49.71875 30.035156 50.390625 28.574219 51.328125 27.257812 C 51.574219 26.90625 51.078125 26.390625 50.726562 26.65625 Z M 50.726562 26.65625 "/><path style=" stroke:none;fill-rule:nonzero;fill:#5db455;fill-opacity:1;" d="M 54.855469 27.238281 C 53.847656 27.789062 52.527344 28.726562 52.046875 29.8125 C 51.585938 30.851562 52.5 31.898438 53.597656 31.472656 C 53.796875 31.394531 53.976562 31.140625 53.820312 30.933594 C 53.40625 30.375 53.269531 30.449219 53.6875 29.847656 C 54.199219 29.109375 54.898438 28.511719 55.339844 27.722656 C 55.511719 27.410156 55.164062 27.070312 54.855469 27.238281 Z M 54.855469 27.238281 "/><path style=" stroke:none;fill-rule:nonzero;fill:#5db455;fill-opacity:1;" d="M 58.511719 28.230469 C 57.796875 28.425781 57.027344 28.894531 56.644531 29.550781 C 56.425781 29.925781 56.484375 30.441406 56.898438 30.65625 C 57.320312 30.875 58.007812 30.785156 58.347656 30.464844 C 58.628906 30.203125 58.46875 29.757812 58.128906 29.648438 C 57.949219 29.589844 57.789062 29.617188 57.605469 29.628906 C 57.546875 29.632812 57.488281 29.632812 57.425781 29.632812 C 57.355469 29.625 57.359375 29.625 57.441406 29.632812 C 57.378906 29.613281 57.390625 29.621094 57.480469 29.65625 C 57.574219 29.699219 57.617188 29.796875 57.652344 29.886719 C 57.660156 30 57.664062 30.023438 57.664062 29.960938 C 57.648438 30.0625 57.648438 30.082031 57.664062 30.019531 C 57.625 30.164062 57.652344 30.054688 57.671875 30.015625 C 57.699219 29.960938 57.738281 29.910156 57.773438 29.859375 C 57.710938 29.949219 57.816406 29.804688 57.820312 29.800781 C 57.855469 29.757812 57.894531 29.714844 57.933594 29.671875 C 58.03125 29.566406 58.136719 29.464844 58.242188 29.371094 C 58.445312 29.183594 58.636719 28.984375 58.851562 28.8125 C 59.136719 28.585938 58.828125 28.140625 58.511719 28.230469 Z M 58.511719 28.230469 "/><path style=" stroke:none;fill-rule:nonzero;fill:#5db455;fill-opacity:1;" d="M 62.3125 27.679688 C 61.492188 28.324219 60.515625 29.0625 59.863281 29.945312 C 59.457031 30.5 59.753906 31.164062 60.429688 31.246094 C 60.691406 31.277344 60.972656 31.121094 61.199219 31.003906 C 61.402344 30.898438 61.53125 30.761719 61.617188 30.550781 C 61.503906 30.828125 61.675781 30.601562 61.757812 30.535156 C 61.839844 30.464844 61.902344 30.359375 61.953125 30.261719 C 62.042969 30.09375 61.976562 29.816406 61.753906 29.78125 C 61.601562 29.753906 61.464844 29.742188 61.3125 29.773438 C 61.238281 29.785156 61.164062 29.804688 61.089844 29.824219 C 61.253906 29.816406 61.234375 29.804688 61.039062 29.792969 C 60.828125 29.792969 60.609375 29.878906 60.398438 29.914062 C 60.609375 29.878906 61.097656 30.023438 60.996094 30.648438 C 61.007812 30.574219 60.90625 30.808594 61 30.660156 C 61.09375 30.507812 60.957031 30.699219 61.042969 30.597656 C 61.109375 30.515625 61.179688 30.4375 61.25 30.359375 C 61.847656 29.710938 62.515625 29.121094 63.066406 28.433594 C 63.5 27.890625 62.851562 27.25 62.3125 27.679688 Z M 62.3125 27.679688 "/><path style=" stroke:none;fill-rule:nonzero;fill:#5db455;fill-opacity:1;" d="M 65.816406 27.421875 C 65.667969 28.175781 64.660156 28.519531 65.257812 29.363281 C 65.433594 29.609375 65.761719 29.75 66.039062 29.570312 C 67.597656 28.558594 68.996094 27.355469 70.515625 26.308594 C 70.363281 26.152344 70.207031 25.996094 70.050781 25.84375 C 69.386719 26.882812 68.511719 27.765625 67.878906 28.828125 C 67.605469 29.289062 68.128906 29.683594 68.550781 29.5 C 69.75 28.976562 71.019531 28.660156 72.207031 28.109375 C 71.941406 27.765625 71.679688 27.425781 71.414062 27.082031 C 70.527344 27.960938 70.285156 29.152344 71.875 29.21875 C 72.738281 29.257812 72.683594 28.015625 71.875 27.914062 C 72.015625 28.296875 72.167969 28.328125 72.339844 28.007812 C 72.875 27.453125 72.203125 26.660156 71.546875 26.980469 C 70.386719 27.546875 69.199219 28.058594 68.054688 28.652344 C 68.28125 28.875 68.503906 29.101562 68.726562 29.324219 C 69.285156 28.226562 70.113281 27.304688 70.640625 26.1875 C 70.773438 25.898438 70.484375 25.519531 70.171875 25.71875 C 68.628906 26.714844 66.988281 27.539062 65.460938 28.585938 C 65.691406 28.613281 65.925781 28.644531 66.15625 28.671875 C 66.082031 28.988281 66.117188 29.039062 66.265625 28.820312 C 66.335938 28.730469 66.402344 28.640625 66.472656 28.546875 C 66.6875 28.257812 66.714844 27.890625 66.726562 27.546875 C 66.742188 27.027344 65.914062 26.902344 65.816406 27.421875 Z M 65.816406 27.421875 "/><path style=" stroke:none;fill-rule:nonzero;fill:#5db455;fill-opacity:1;" d="M 75.433594 26.726562 C 74.367188 28.761719 73.171875 31.132812 72.824219 33.425781 C 72.761719 33.84375 72.855469 34.304688 73.273438 34.519531 C 73.652344 34.71875 73.871094 34.6875 74.25 34.519531 C 74.574219 34.382812 74.707031 33.996094 74.734375 33.683594 C 74.925781 31.355469 76.53125 29.390625 76.566406 27.035156 C 76.578125 26.441406 75.71875 26.1875 75.433594 26.726562 Z M 75.433594 26.726562 "/><path style=" stroke:none;fill-rule:nonzero;fill:#5db455;fill-opacity:1;" d="M 76.804688 30.941406 C 75.902344 31.964844 75.394531 33.183594 74.84375 34.417969 C 74.441406 35.324219 73.609375 36.410156 74.050781 37.394531 C 74.164062 37.640625 74.519531 37.761719 74.765625 37.683594 C 75.796875 37.355469 76.074219 35.816406 76.460938 34.914062 C 76.972656 33.722656 77.472656 32.582031 77.640625 31.289062 C 77.695312 30.863281 77.070312 30.644531 76.804688 30.941406 Z M 76.804688 30.941406 "/><path style=" stroke:none;fill-rule:nonzero;fill:#5db455;fill-opacity:1;" d="M 77.398438 34.257812 C 76.738281 34.871094 76.289062 35.742188 75.789062 36.492188 C 75.304688 37.214844 74.359375 38.390625 74.902344 39.265625 C 75.089844 39.5625 75.460938 39.660156 75.769531 39.492188 C 76.226562 39.242188 76.277344 38.875 76.488281 38.433594 C 76.746094 37.875 77.113281 37.363281 77.445312 36.84375 C 77.929688 36.09375 78.421875 35.199219 77.984375 34.332031 C 77.871094 34.109375 77.5625 34.101562 77.398438 34.257812 Z M 77.398438 34.257812 "/><path style=" stroke:none;fill-rule:nonzero;fill:#5db455;fill-opacity:1;" d="M 82.53125 33.433594 C 81.574219 34.351562 80.71875 35.335938 79.945312 36.414062 C 79.433594 37.128906 78.371094 38.371094 79.203125 39.199219 C 79.527344 39.519531 80.019531 39.417969 80.261719 39.0625 C 79.886719 39.617188 80.382812 38.984375 80.433594 38.902344 C 80.519531 38.753906 80.570312 38.570312 80.652344 38.417969 C 80.902344 37.945312 81.222656 37.511719 81.53125 37.082031 C 82.21875 36.125 82.921875 35.191406 83.429688 34.128906 C 83.707031 33.554688 83.019531 32.964844 82.53125 33.433594 Z M 82.53125 33.433594 "/><path style=" stroke:none;fill-rule:nonzero;fill:#5db455;fill-opacity:1;" d="M 84.636719 32.390625 C 83.894531 32.46875 83.664062 33.589844 83.410156 34.15625 C 83.042969 34.960938 82.492188 35.9375 82.449219 36.839844 C 82.433594 37.199219 82.714844 37.542969 83.058594 37.632812 C 83.128906 37.652344 83.203125 37.664062 83.277344 37.664062 C 83.667969 37.660156 83.941406 37.410156 84.070312 37.058594 C 84.277344 36.507812 86.191406 32.226562 84.636719 32.390625 Z M 84.636719 32.390625 "/><path style=" stroke:none;fill-rule:nonzero;fill:#5db455;fill-opacity:1;" d="M 87.167969 30.246094 C 85.808594 31.546875 84.96875 33.628906 84.710938 35.480469 C 84.566406 36.511719 86.0625 37 86.324219 35.925781 C 86.738281 34.210938 87.238281 32.476562 87.972656 30.867188 C 88.207031 30.351562 87.609375 29.820312 87.167969 30.246094 Z M 87.167969 30.246094 "/><path style=" stroke:none;fill-rule:nonzero;fill:#5db455;fill-opacity:1;" d="M 89.332031 29.441406 C 88.703125 29.835938 88.503906 30.921875 88.277344 31.574219 C 87.972656 32.464844 87.488281 33.367188 87.367188 34.300781 C 87.277344 34.972656 88.296875 35.363281 88.710938 34.859375 C 89.300781 34.148438 89.53125 33.082031 89.796875 32.210938 C 90.015625 31.5 90.535156 30.144531 89.898438 29.515625 C 89.753906 29.371094 89.507812 29.328125 89.332031 29.441406 Z M 89.332031 29.441406 "/><path style=" stroke:none;fill-rule:nonzero;fill:#5db455;fill-opacity:1;" d="M 92.234375 26.636719 C 91.175781 27.730469 90.625 29.492188 90.28125 30.945312 C 90.21875 31.207031 90.273438 31.515625 90.484375 31.703125 C 90.660156 31.863281 90.789062 31.957031 91.035156 31.933594 C 91.289062 31.910156 91.59375 31.804688 91.707031 31.546875 C 92.300781 30.199219 92.972656 28.648438 93.175781 27.183594 C 93.25 26.667969 92.667969 26.191406 92.234375 26.636719 Z M 92.234375 26.636719 "/><path style=" stroke:none;fill-rule:nonzero;fill:#5db455;fill-opacity:1;" d="M 94.363281 24.226562 C 94.242188 24.847656 94.007812 25.464844 93.851562 26.085938 C 93.703125 26.679688 93.40625 27.238281 93.695312 27.820312 C 93.832031 28.09375 94.191406 28.144531 94.441406 28.015625 C 95.050781 27.691406 95.078125 26.882812 95.15625 26.261719 C 95.246094 25.535156 95.109375 24.929688 94.988281 24.226562 C 94.933594 23.914062 94.421875 23.917969 94.363281 24.226562 Z M 94.363281 24.226562 "/><path style=" stroke:none;fill-rule:nonzero;fill:#5db455;fill-opacity:1;" d="M 95.933594 24.359375 C 95.867188 24.84375 95.585938 25.25 95.570312 25.742188 C 95.5625 25.964844 95.730469 26.167969 95.9375 26.226562 C 96.171875 26.292969 96.367188 26.179688 96.503906 25.996094 C 96.816406 25.574219 96.886719 24.996094 96.835938 24.484375 C 96.816406 24.277344 96.710938 24.097656 96.5 24.039062 C 96.28125 23.980469 95.96875 24.113281 95.933594 24.359375 Z M 95.933594 24.359375 "/><path style=" stroke:none;fill-rule:nonzero;fill:#5db455;fill-opacity:1;" d="M 73.617188 3.722656 C 72.804688 4.261719 67.773438 7.59375 69.859375 8.785156 C 70.136719 8.945312 70.589844 8.933594 70.808594 8.660156 C 70.941406 8.492188 71.035156 8.339844 71.035156 8.109375 C 71.035156 7.382812 70.738281 8.722656 71.039062 8.15625 C 71.253906 7.75 71.644531 7.417969 71.960938 7.097656 C 72.765625 6.292969 73.550781 5.476562 74.335938 4.65625 C 74.792969 4.179688 74.195312 3.34375 73.617188 3.722656 Z M 73.617188 3.722656 "/><path style=" stroke:none;fill-rule:nonzero;fill:#5db455;fill-opacity:1;" d="M 73.289062 6.121094 C 71.917969 6.988281 70.628906 8.648438 69.945312 10.097656 C 69.773438 10.464844 69.800781 10.828125 70.078125 11.136719 C 70.707031 11.832031 71.445312 11.398438 71.734375 10.671875 C 71.996094 10.003906 71.167969 9.617188 70.660156 9.847656 C 70.578125 9.875 70.5 9.914062 70.429688 9.964844 C 70.640625 9.9375 70.847656 9.910156 71.058594 9.882812 C 71.035156 9.875 71.015625 9.863281 70.992188 9.855469 C 71.160156 9.984375 71.324219 10.113281 71.492188 10.238281 C 71.46875 10.191406 71.449219 10.144531 71.425781 10.097656 C 71.425781 10.386719 71.425781 10.675781 71.425781 10.964844 C 71.789062 10.191406 72.28125 9.503906 72.8125 8.84375 C 73.320312 8.214844 73.921875 7.5625 74.128906 6.769531 C 74.257812 6.296875 73.722656 5.847656 73.289062 6.121094 Z M 73.289062 6.121094 "/><path style=" stroke:none;fill-rule:nonzero;fill:#5db455;fill-opacity:1;" d="M 73.746094 9.339844 C 73.304688 9.839844 72.8125 10.296875 72.351562 10.78125 C 71.925781 11.230469 71.378906 11.78125 71.214844 12.390625 C 71.070312 12.925781 71.71875 13.546875 72.222656 13.167969 C 72.738281 12.78125 73.101562 12.167969 73.46875 11.640625 C 73.855469 11.082031 74.195312 10.527344 74.507812 9.925781 C 74.746094 9.457031 74.125 8.90625 73.746094 9.339844 Z M 73.746094 9.339844 "/><path style=" stroke:none;fill-rule:nonzero;fill:#5db455;fill-opacity:1;" d="M 61.5625 26.929688 C 61.058594 27.355469 60.75 28 60.421875 28.5625 C 60.074219 29.160156 59.523438 29.898438 59.550781 30.609375 C 59.566406 31.144531 60.191406 31.601562 60.6875 31.261719 C 61.292969 30.847656 61.570312 30.0625 61.890625 29.421875 C 62.21875 28.773438 62.59375 28.109375 62.636719 27.375 C 62.671875 26.78125 61.949219 26.609375 61.5625 26.929688 Z M 61.5625 26.929688 "/><path style=" stroke:none;fill-rule:nonzero;fill:#5db455;fill-opacity:1;" d="M 59.003906 27.109375 C 58.574219 28.0625 58.160156 29 57.953125 30.027344 C 57.769531 30.933594 59.15625 31.316406 59.335938 30.410156 C 59.53125 29.441406 59.75 28.480469 59.960938 27.515625 C 60.082031 26.960938 59.261719 26.546875 59.003906 27.109375 Z M 59.003906 27.109375 "/><path style=" stroke:none;fill-rule:nonzero;fill:#5db455;fill-opacity:1;" d="M 56.253906 27.582031 C 55.933594 28.695312 55.5 29.753906 55.105469 30.835938 C 55.019531 31.066406 55.113281 31.398438 55.296875 31.558594 C 55.46875 31.707031 55.59375 31.757812 55.820312 31.773438 C 56.050781 31.792969 56.363281 31.625 56.460938 31.40625 C 56.96875 30.234375 57.199219 28.992188 57.234375 27.714844 C 57.246094 27.144531 56.40625 27.046875 56.253906 27.582031 Z M 56.253906 27.582031 "/><path style=" stroke:none;fill-rule:nonzero;fill:#5db455;fill-opacity:1;" d="M 47.582031 27.535156 C 46.796875 28.015625 46.289062 28.773438 45.820312 29.546875 C 45.449219 30.15625 44.949219 31.085938 45.335938 31.785156 C 45.597656 32.257812 46.421875 32.320312 46.667969 31.785156 C 46.90625 31.265625 47.046875 30.734375 47.3125 30.21875 C 47.644531 29.582031 48.054688 28.984375 48.40625 28.359375 C 48.699219 27.84375 48.109375 27.214844 47.582031 27.535156 Z M 47.582031 27.535156 "/><path style=" stroke:none;fill-rule:nonzero;fill:#5db455;fill-opacity:1;" d="M 39.449219 27.613281 C 38.84375 28.128906 38.503906 28.859375 38.09375 29.535156 C 37.878906 29.886719 37.667969 30.238281 37.425781 30.570312 C 37.183594 30.898438 36.855469 31.082031 36.886719 31.550781 C 36.90625 31.914062 37.117188 32.226562 37.476562 32.328125 C 38.46875 32.601562 39.074219 31.242188 39.449219 30.546875 C 39.882812 29.734375 40.351562 28.707031 40.089844 27.785156 C 40.007812 27.488281 39.664062 27.429688 39.449219 27.613281 Z M 39.449219 27.613281 "/><path style=" stroke:none;fill-rule:nonzero;fill:#5db455;fill-opacity:1;" d="M 34.210938 27.480469 C 33.632812 28.152344 33.191406 28.910156 32.855469 29.730469 C 32.589844 30.367188 32.003906 31.324219 32.183594 32.035156 C 32.351562 32.679688 33.082031 32.746094 33.539062 32.390625 C 33.984375 32.039062 34.128906 31.046875 34.3125 30.53125 C 34.585938 29.757812 34.773438 28.921875 35.109375 28.175781 C 35.359375 27.625 34.667969 26.949219 34.210938 27.480469 Z M 34.210938 27.480469 "/><path style=" stroke:none;fill-rule:nonzero;fill:#5db455;fill-opacity:1;" d="M 30.351562 27.195312 C 29.761719 27.835938 29.207031 28.480469 28.683594 29.175781 C 28.296875 29.683594 27.320312 30.648438 27.972656 31.296875 C 29.03125 32.355469 30.785156 28.441406 31.128906 27.792969 C 31.386719 27.3125 30.746094 26.773438 30.351562 27.195312 Z M 30.351562 27.195312 "/><path style=" stroke:none;fill-rule:nonzero;fill:#5db455;fill-opacity:1;" d="M 30.421875 27.480469 C 29.359375 27.734375 28.398438 28.125 27.453125 28.667969 C 26.699219 29.101562 25.609375 29.785156 25.40625 30.679688 C 25.34375 30.96875 25.582031 31.195312 25.867188 31.140625 C 26.675781 30.976562 27.386719 30.152344 28.054688 29.691406 C 28.863281 29.140625 29.734375 28.652344 30.644531 28.289062 C 31.132812 28.09375 30.957031 27.355469 30.421875 27.480469 Z M 30.421875 27.480469 "/><path style=" stroke:none;fill-rule:nonzero;fill:#5db455;fill-opacity:1;" d="M 27.1875 27.09375 C 25.671875 28.714844 23.648438 30.019531 22.386719 31.851562 C 22.007812 32.398438 22.824219 32.972656 23.277344 32.539062 C 23.5625 32.269531 23.769531 31.929688 23.832031 31.535156 C 23.859375 31.335938 23.707031 31.109375 23.480469 31.183594 C 23.15625 31.289062 22.898438 31.503906 22.589844 31.648438 C 22.820312 31.945312 23.046875 32.242188 23.277344 32.539062 C 24.953125 31.148438 26.546875 29.347656 27.8125 27.578125 C 28.078125 27.203125 27.492188 26.765625 27.1875 27.09375 Z M 27.1875 27.09375 "/><path style=" stroke:none;fill-rule:nonzero;fill:#5db455;fill-opacity:1;" d="M 25.363281 27.644531 C 24.316406 27.960938 23.359375 28.589844 22.496094 29.246094 C 21.886719 29.707031 20.515625 30.457031 20.386719 31.160156 C 20.34375 31.390625 20.445312 31.566406 20.664062 31.648438 C 21.351562 31.910156 22.285156 30.820312 22.820312 30.363281 C 23.6875 29.617188 24.535156 28.636719 25.554688 28.101562 C 25.804688 27.96875 25.632812 27.5625 25.363281 27.644531 Z M 25.363281 27.644531 "/><path style=" stroke:none;fill-rule:nonzero;fill:#5db455;fill-opacity:1;" d="M 22.515625 28.070312 C 21.355469 28.679688 20.277344 29.53125 19.390625 30.492188 C 19.269531 30.621094 19.203125 30.808594 19.261719 30.980469 C 19.324219 31.175781 19.414062 31.265625 19.609375 31.332031 C 19.78125 31.386719 19.96875 31.320312 20.097656 31.203125 C 21.019531 30.355469 21.84375 29.417969 22.898438 28.722656 C 23.304688 28.457031 22.949219 27.839844 22.515625 28.070312 Z M 22.515625 28.070312 "/><path style=" stroke:none;fill-rule:nonzero;fill:#5db455;fill-opacity:1;" d="M 20.65625 27.921875 C 19.808594 28.351562 19.007812 28.890625 18.257812 29.480469 C 17.628906 29.972656 16.664062 30.421875 16.347656 31.175781 C 16.238281 31.4375 16.507812 31.699219 16.75 31.707031 C 17.476562 31.726562 18.078125 31.019531 18.589844 30.570312 C 19.386719 29.863281 20.117188 29.117188 21.011719 28.53125 C 21.394531 28.28125 21.0625 27.710938 20.65625 27.921875 Z M 20.65625 27.921875 "/><path style=" stroke:none;fill-rule:nonzero;fill:#5db455;fill-opacity:1;" d="M 16.75 28.511719 C 16.605469 28.527344 16.480469 28.605469 16.382812 28.707031 C 16.347656 28.746094 16.402344 28.800781 16.4375 28.765625 C 16.523438 28.6875 16.632812 28.625 16.75 28.621094 C 16.820312 28.621094 16.820312 28.503906 16.75 28.511719 Z M 16.75 28.511719 "/><path style=" stroke:none;fill-rule:nonzero;fill:#5db455;fill-opacity:1;" d="M 15.28125 27.832031 C 14.386719 27.972656 13.683594 28.378906 13 28.957031 C 12.375 29.492188 11.660156 30.34375 11.421875 31.140625 C 11.371094 31.320312 11.425781 31.523438 11.558594 31.652344 C 11.628906 31.722656 11.699219 31.753906 11.789062 31.785156 C 11.972656 31.851562 12.164062 31.769531 12.300781 31.652344 C 12.84375 31.183594 13.207031 30.496094 13.699219 29.96875 C 14.214844 29.417969 14.78125 28.878906 15.496094 28.621094 C 16 28.4375 15.796875 27.75 15.28125 27.832031 Z M 15.28125 27.832031 "/><path style=" stroke:none;fill-rule:nonzero;fill:#5db455;fill-opacity:1;" d="M 12.085938 27.476562 C 11.5625 28.011719 11.148438 28.464844 10.808594 29.140625 C 10.558594 29.636719 10.355469 30.152344 10.074219 30.632812 C 9.667969 31.320312 8.941406 32.097656 9.292969 32.933594 C 9.449219 33.304688 9.898438 33.367188 10.238281 33.320312 C 10.414062 33.296875 10.558594 33.175781 10.679688 33.058594 C 11.253906 32.496094 10.675781 31.429688 9.882812 31.6875 C 9.925781 31.683594 9.972656 31.679688 10.015625 31.675781 C 10.285156 31.878906 10.554688 32.085938 10.824219 32.289062 C 10.898438 32.617188 10.660156 33.054688 10.867188 32.582031 C 10.929688 32.445312 11.003906 32.3125 11.074219 32.179688 C 11.242188 31.851562 11.417969 31.527344 11.566406 31.1875 C 11.742188 30.792969 11.890625 30.382812 12.03125 29.972656 C 12.265625 29.300781 12.28125 28.515625 12.621094 27.886719 C 12.796875 27.550781 12.363281 27.195312 12.085938 27.476562 Z M 12.085938 27.476562 "/></g></svg>