<svg xmlns="http://www.w3.org/2000/svg" xmlns:xlink="http://www.w3.org/1999/xlink" width="100" zoomAndPan="magnify" viewBox="0 0 75 33.749998" height="45" preserveAspectRatio="xMidYMid meet" version="1.2"><defs><clipPath id="08d5e547e4"><path d="M 0.277344 0 L 74.722656 0 L 74.722656 33.5 L 0.277344 33.5 Z M 0.277344 0 "/></clipPath></defs><g id="268673bb0b"><g clip-rule="nonzero" clip-path="url(#08d5e547e4)"><path style=" stroke:none;fill-rule:nonzero;fill:#265e43;fill-opacity:1;" d="M 74.210938 13.546875 C 74.011719 12.609375 73.363281 11.652344 73.449219 10.894531 C 73.769531 8.15625 72.113281 7.328125 70.039062 6.644531 C 61.304688 3.742188 52.410156 1.511719 43.257812 0.402344 C 39.984375 0.0078125 39.175781 0.886719 39.898438 4.101562 C 39.992188 4.5 40.140625 4.882812 40.25 5.28125 C 40.609375 6.617188 41.605469 7.230469 42.839844 7.003906 C 44.046875 6.773438 45.128906 7.0625 46.230469 7.28125 C 49.050781 7.84375 51.851562 8.496094 54.660156 9.113281 C 54.746094 9.265625 54.757812 9.421875 54.699219 9.582031 C 51.667969 9.84375 48.640625 10.203125 45.609375 10.339844 C 37.832031 10.6875 30.191406 12.550781 22.324219 12.183594 C 18.582031 12.015625 14.777344 12.636719 11.042969 13.167969 C 8.101562 13.59375 5.125 13.371094 2.214844 13.992188 C 0.734375 14.304688 0.460938 14.683594 1.335938 15.886719 C 3.070312 18.300781 4.882812 20.699219 8.476562 19.925781 C 9.105469 19.785156 9.785156 19.859375 10.445312 19.785156 C 16.578125 19.167969 22.734375 18.820312 28.882812 18.429688 C 35.523438 18.007812 42.167969 17.558594 48.8125 17.101562 C 51.027344 16.949219 53.238281 16.742188 55.671875 16.546875 C 54.992188 17.636719 54.113281 17.953125 53.386719 18.449219 C 50.9375 20.125 48.757812 22.121094 46.511719 24.042969 C 43.074219 26.976562 44.546875 30.890625 46.222656 33.289062 C 46.535156 33.738281 46.941406 33.992188 47.378906 33.378906 C 48.699219 31.527344 50.667969 30.433594 52.476562 29.167969 C 57.652344 25.53125 63.078125 22.277344 68.5 19.023438 C 69.910156 18.175781 71.324219 17.34375 72.738281 16.519531 C 73.890625 15.855469 74.558594 15.132812 74.210938 13.546875 Z M 55.664062 9.230469 C 55.703125 9.210938 55.742188 9.207031 55.78125 9.171875 C 55.753906 9.207031 55.722656 9.226562 55.691406 9.246094 C 55.683594 9.246094 55.675781 9.238281 55.664062 9.230469 Z M 55.664062 9.230469 "/></g></g></svg>