<svg xmlns="http://www.w3.org/2000/svg" xmlns:xlink="http://www.w3.org/1999/xlink" width="70" zoomAndPan="magnify" viewBox="0 0 52.5 52.499999" height="70" preserveAspectRatio="xMidYMid meet" version="1.2"><g id="3115c61ef0"><path style=" stroke:none;fill-rule:evenodd;fill:#ffffff;fill-opacity:1;" d="M 32.433594 14.773438 C 32.863281 15.019531 33.414062 14.867188 33.660156 14.4375 L 35.539062 11.148438 C 35.785156 10.722656 35.636719 10.167969 35.203125 9.921875 C 34.773438 9.675781 34.222656 9.828125 33.976562 10.257812 L 32.097656 13.542969 C 31.851562 13.972656 32.003906 14.527344 32.433594 14.773438 Z M 32.433594 14.773438 "/><path style=" stroke:none;fill-rule:evenodd;fill:#ffffff;fill-opacity:1;" d="M 25.953125 13.066406 C 26.449219 13.0625 26.851562 12.65625 26.847656 12.160156 L 26.832031 8.375 C 26.832031 7.882812 26.425781 7.476562 25.929688 7.480469 C 25.4375 7.480469 25.035156 7.886719 25.035156 8.382812 L 25.050781 12.167969 C 25.054688 12.664062 25.460938 13.066406 25.953125 13.066406 Z M 25.953125 13.066406 "/><path style=" stroke:none;fill-rule:evenodd;fill:#ffffff;fill-opacity:1;" d="M 26.042969 35.707031 C 31.382812 35.6875 35.726562 31.300781 35.707031 25.96875 C 35.683594 20.632812 31.304688 16.285156 25.964844 16.304688 C 20.632812 16.328125 16.285156 20.710938 16.308594 26.046875 C 16.328125 31.378906 20.710938 35.730469 26.046875 35.707031 Z M 26.507812 34.316406 C 26.101562 34.339844 25.714844 34.199219 25.417969 33.921875 C 25.121094 33.644531 24.957031 33.265625 24.953125 32.859375 L 24.898438 19.164062 C 24.898438 18.757812 25.058594 18.375 25.351562 18.09375 C 25.648438 17.816406 26.035156 17.671875 26.441406 17.695312 C 30.832031 17.921875 34.3125 21.574219 34.332031 25.972656 C 34.347656 30.371094 30.898438 34.050781 26.507812 34.316406 Z M 26.507812 34.316406 "/><path style=" stroke:none;fill-rule:evenodd;fill:#ffffff;fill-opacity:1;" d="M 19.488281 14.824219 C 19.917969 14.574219 20.0625 14.019531 19.8125 13.59375 L 17.90625 10.324219 C 17.660156 9.898438 17.105469 9.75 16.679688 10 C 16.25 10.25 16.105469 10.804688 16.351562 11.226562 L 18.261719 14.5 C 18.507812 14.925781 19.0625 15.074219 19.488281 14.824219 Z M 19.488281 14.824219 "/><path style=" stroke:none;fill-rule:evenodd;fill:#ffffff;fill-opacity:1;" d="M 14.769531 19.582031 C 15.015625 19.152344 14.867188 18.597656 14.4375 18.351562 L 11.152344 16.472656 C 10.722656 16.226562 10.171875 16.378906 9.925781 16.808594 C 9.679688 17.238281 9.828125 17.789062 10.257812 18.035156 L 13.542969 19.914062 C 13.972656 20.160156 14.523438 20.011719 14.769531 19.582031 Z M 14.769531 19.582031 "/><path style=" stroke:none;fill-rule:evenodd;fill:#ffffff;fill-opacity:1;" d="M 13.0625 26.058594 C 13.0625 25.5625 12.65625 25.160156 12.160156 25.164062 L 8.375 25.179688 C 7.878906 25.179688 7.476562 25.585938 7.480469 26.082031 C 7.480469 26.578125 7.886719 26.980469 8.382812 26.976562 L 12.167969 26.960938 C 12.664062 26.960938 13.066406 26.554688 13.0625 26.058594 Z M 13.0625 26.058594 "/><path style=" stroke:none;fill-rule:evenodd;fill:#ffffff;fill-opacity:1;" d="M 14.824219 32.523438 C 14.574219 32.097656 14.023438 31.949219 13.59375 32.199219 L 10.324219 34.105469 C 9.894531 34.355469 9.75 34.910156 10 35.335938 C 10.25 35.765625 10.800781 35.910156 11.230469 35.660156 L 14.5 33.753906 C 14.929688 33.503906 15.074219 32.953125 14.824219 32.523438 Z M 14.824219 32.523438 "/><path style=" stroke:none;fill-rule:evenodd;fill:#ffffff;fill-opacity:1;" d="M 19.582031 37.242188 C 19.152344 36.996094 18.597656 37.148438 18.355469 37.574219 L 16.472656 40.863281 C 16.230469 41.289062 16.378906 41.84375 16.808594 42.089844 C 17.238281 42.335938 17.789062 42.183594 18.035156 41.757812 L 19.914062 38.46875 C 20.160156 38.042969 20.011719 37.488281 19.582031 37.242188 Z M 19.582031 37.242188 "/><path style=" stroke:none;fill-rule:evenodd;fill:#ffffff;fill-opacity:1;" d="M 26.058594 38.949219 C 25.566406 38.949219 25.164062 39.359375 25.164062 39.851562 L 25.179688 43.636719 C 25.183594 44.132812 25.589844 44.535156 26.082031 44.535156 C 26.574219 44.53125 26.980469 44.125 26.976562 43.628906 L 26.960938 39.84375 C 26.960938 39.351562 26.554688 38.945312 26.058594 38.949219 Z M 26.058594 38.949219 "/><path style=" stroke:none;fill-rule:evenodd;fill:#ffffff;fill-opacity:1;" d="M 32.523438 37.1875 C 32.09375 37.4375 31.949219 37.992188 32.199219 38.417969 L 34.105469 41.691406 C 34.355469 42.117188 34.90625 42.265625 35.335938 42.015625 C 35.761719 41.765625 35.90625 41.210938 35.660156 40.785156 L 33.753906 37.511719 C 33.507812 37.085938 32.953125 36.941406 32.523438 37.1875 Z M 32.523438 37.1875 "/><path style=" stroke:none;fill-rule:evenodd;fill:#ffffff;fill-opacity:1;" d="M 37.242188 32.433594 C 36.996094 32.863281 37.144531 33.414062 37.578125 33.660156 L 40.863281 35.539062 C 41.292969 35.785156 41.84375 35.636719 42.089844 35.207031 C 42.335938 34.777344 42.183594 34.222656 41.753906 33.976562 L 38.46875 32.097656 C 38.039062 31.855469 37.488281 32.003906 37.242188 32.433594 Z M 37.242188 32.433594 "/><path style=" stroke:none;fill-rule:evenodd;fill:#ffffff;fill-opacity:1;" d="M 38.949219 25.953125 C 38.953125 26.449219 39.359375 26.851562 39.851562 26.851562 L 43.636719 26.835938 C 44.132812 26.832031 44.535156 26.425781 44.535156 25.929688 C 44.53125 25.4375 44.125 25.03125 43.632812 25.035156 L 39.847656 25.050781 C 39.351562 25.050781 38.949219 25.457031 38.949219 25.953125 Z M 38.949219 25.953125 "/><path style=" stroke:none;fill-rule:evenodd;fill:#ffffff;fill-opacity:1;" d="M 37.191406 19.488281 C 37.4375 19.917969 37.992188 20.0625 38.417969 19.816406 L 41.691406 17.910156 C 42.117188 17.660156 42.261719 17.105469 42.011719 16.675781 C 41.765625 16.25 41.210938 16.105469 40.785156 16.351562 L 37.515625 18.257812 C 37.085938 18.507812 36.941406 19.0625 37.191406 19.488281 Z M 37.191406 19.488281 "/></g></svg>