<svg xmlns="http://www.w3.org/2000/svg" xmlns:xlink="http://www.w3.org/1999/xlink" width="100" zoomAndPan="magnify" viewBox="0 0 75 74.999997" height="100" preserveAspectRatio="xMidYMid meet" version="1.2"><g id="2f9d63429f"><path style=" stroke:none;fill-rule:evenodd;fill:#5db455;fill-opacity:1;" d="M 75 37.496094 C 75 58.207031 58.210938 74.992188 37.5 74.992188 C 16.789062 74.992188 0 58.207031 0 37.496094 C 0 16.785156 16.789062 0 37.5 0 C 58.210938 0 75 16.785156 75 37.496094 Z M 75 37.496094 "/><path style=" stroke:none;fill-rule:nonzero;fill:#cce9c9;fill-opacity:1;" d="M 34.816406 71.28125 C 34.785156 71.28125 34.753906 71.28125 34.722656 71.277344 C 32.863281 71.125 31.003906 70.820312 29.203125 70.367188 C 28.59375 70.214844 28.222656 69.59375 28.375 68.984375 C 28.53125 68.375 29.148438 68.007812 29.757812 68.160156 C 31.4375 68.582031 33.171875 68.867188 34.90625 69.007812 C 35.535156 69.0625 36 69.609375 35.949219 70.234375 C 35.902344 70.832031 35.402344 71.28125 34.816406 71.28125 Z M 40.222656 71.277344 C 39.636719 71.277344 39.140625 70.828125 39.089844 70.234375 C 39.039062 69.609375 39.503906 69.058594 40.128906 69.007812 C 41.867188 68.863281 43.597656 68.574219 45.28125 68.152344 C 45.886719 67.996094 46.507812 68.363281 46.660156 68.976562 C 46.816406 69.582031 46.445312 70.203125 45.835938 70.355469 C 44.035156 70.8125 42.175781 71.121094 40.316406 71.273438 C 40.285156 71.277344 40.253906 71.277344 40.222656 71.277344 Z M 24.359375 68.648438 C 24.207031 68.648438 24.050781 68.617188 23.902344 68.550781 C 22.199219 67.804688 20.539062 66.90625 18.980469 65.886719 C 18.453125 65.542969 18.304688 64.839844 18.648438 64.3125 C 18.992188 63.785156 19.695312 63.636719 20.222656 63.984375 C 21.679688 64.933594 23.226562 65.769531 24.816406 66.46875 C 25.390625 66.71875 25.65625 67.390625 25.402344 67.96875 C 25.214844 68.394531 24.796875 68.648438 24.359375 68.648438 Z M 50.675781 68.632812 C 50.238281 68.632812 49.820312 68.378906 49.632812 67.953125 C 49.378906 67.378906 49.640625 66.707031 50.214844 66.453125 C 51.804688 65.753906 53.347656 64.917969 54.804688 63.964844 C 55.328125 63.621094 56.035156 63.765625 56.378906 64.292969 C 56.722656 64.816406 56.574219 65.523438 56.050781 65.867188 C 54.492188 66.890625 52.835938 67.789062 51.132812 68.535156 C 50.984375 68.601562 50.828125 68.632812 50.675781 68.632812 Z M 15.332031 62.75 C 15.054688 62.75 14.78125 62.652344 14.5625 62.449219 C 13.1875 61.1875 11.914062 59.804688 10.765625 58.335938 C 10.378906 57.84375 10.46875 57.125 10.964844 56.738281 C 11.457031 56.351562 12.171875 56.441406 12.558594 56.9375 C 13.628906 58.304688 14.820312 59.597656 16.101562 60.773438 C 16.5625 61.199219 16.59375 61.921875 16.167969 62.382812 C 15.945312 62.625 15.636719 62.75 15.332031 62.75 Z M 59.691406 62.730469 C 59.386719 62.730469 59.078125 62.605469 58.855469 62.363281 C 58.429688 61.902344 58.457031 61.179688 58.921875 60.753906 C 60.199219 59.578125 61.390625 58.28125 62.457031 56.914062 C 62.84375 56.417969 63.5625 56.328125 64.054688 56.714844 C 64.550781 57.101562 64.640625 57.816406 64.253906 58.3125 C 63.109375 59.78125 61.832031 61.164062 60.464844 62.429688 C 60.246094 62.628906 59.96875 62.730469 59.691406 62.730469 Z M 8.699219 54.253906 C 8.292969 54.253906 7.902344 54.039062 7.699219 53.660156 C 6.808594 52.019531 6.046875 50.296875 5.441406 48.539062 C 5.238281 47.945312 5.554688 47.296875 6.148438 47.09375 C 6.742188 46.886719 7.390625 47.203125 7.59375 47.796875 C 8.160156 49.4375 8.867188 51.042969 9.695312 52.570312 C 9.996094 53.125 9.792969 53.816406 9.242188 54.113281 C 9.066406 54.207031 8.882812 54.253906 8.699219 54.253906 Z M 66.316406 54.222656 C 66.136719 54.222656 65.949219 54.179688 65.777344 54.085938 C 65.222656 53.785156 65.019531 53.09375 65.316406 52.542969 C 66.148438 51.011719 66.855469 49.40625 67.417969 47.761719 C 67.621094 47.167969 68.269531 46.851562 68.863281 47.054688 C 69.457031 47.257812 69.773438 47.90625 69.570312 48.5 C 68.96875 50.261719 68.207031 51.988281 67.320312 53.628906 C 67.113281 54.007812 66.722656 54.222656 66.316406 54.222656 Z M 5.1875 44.0625 C 4.640625 44.0625 4.160156 43.667969 4.066406 43.113281 C 3.761719 41.285156 3.605469 39.40625 3.601562 37.535156 C 3.601562 36.90625 4.109375 36.398438 4.738281 36.398438 C 4.738281 36.398438 4.738281 36.398438 4.742188 36.398438 C 5.367188 36.398438 5.878906 36.90625 5.878906 37.535156 C 5.878906 39.28125 6.027344 41.03125 6.3125 42.738281 C 6.414062 43.359375 5.996094 43.945312 5.375 44.046875 C 5.3125 44.058594 5.25 44.0625 5.1875 44.0625 Z M 69.820312 44.023438 C 69.757812 44.023438 69.695312 44.019531 69.632812 44.007812 C 69.011719 43.90625 68.59375 43.320312 68.695312 42.699219 C 68.976562 40.992188 69.121094 39.242188 69.121094 37.496094 L 69.121094 37.417969 C 69.121094 36.789062 69.628906 36.28125 70.257812 36.28125 C 70.886719 36.28125 71.398438 36.789062 71.398438 37.417969 L 71.398438 37.484375 C 71.398438 39.367188 71.242188 41.242188 70.941406 43.070312 C 70.847656 43.628906 70.367188 44.023438 69.820312 44.023438 Z M 5.175781 33.28125 C 5.117188 33.28125 5.054688 33.277344 4.992188 33.265625 C 4.371094 33.164062 3.949219 32.578125 4.050781 31.960938 C 4.355469 30.121094 4.8125 28.292969 5.414062 26.53125 C 5.617188 25.9375 6.265625 25.617188 6.859375 25.820312 C 7.453125 26.027344 7.773438 26.671875 7.570312 27.265625 C 7.007812 28.910156 6.578125 30.613281 6.296875 32.328125 C 6.207031 32.886719 5.722656 33.28125 5.175781 33.28125 Z M 69.804688 33.167969 C 69.257812 33.167969 68.777344 32.773438 68.683594 32.21875 C 68.394531 30.503906 67.960938 28.800781 67.394531 27.160156 C 67.1875 26.566406 67.503906 25.917969 68.097656 25.714844 C 68.691406 25.507812 69.339844 25.824219 69.542969 26.417969 C 70.152344 28.175781 70.617188 30.003906 70.925781 31.839844 C 71.03125 32.460938 70.613281 33.046875 69.992188 33.152344 C 69.929688 33.160156 69.867188 33.167969 69.804688 33.167969 Z M 8.660156 23.078125 C 8.480469 23.078125 8.292969 23.035156 8.121094 22.941406 C 7.570312 22.644531 7.363281 21.953125 7.660156 21.402344 C 8.546875 19.761719 9.578125 18.183594 10.722656 16.710938 C 11.105469 16.21875 11.824219 16.128906 12.316406 16.511719 C 12.8125 16.898438 12.902344 17.613281 12.519531 18.109375 C 11.449219 19.484375 10.488281 20.957031 9.664062 22.484375 C 9.457031 22.863281 9.066406 23.078125 8.660156 23.078125 Z M 66.285156 22.980469 C 65.882812 22.980469 65.492188 22.765625 65.285156 22.390625 C 64.453125 20.863281 63.488281 19.398438 62.417969 18.027344 C 62.03125 17.53125 62.117188 16.816406 62.609375 16.429688 C 63.105469 16.042969 63.820312 16.128906 64.210938 16.625 C 65.359375 18.09375 66.394531 19.664062 67.285156 21.300781 C 67.585938 21.851562 67.378906 22.542969 66.828125 22.84375 C 66.65625 22.9375 66.46875 22.980469 66.285156 22.980469 Z M 15.28125 14.566406 C 14.972656 14.566406 14.667969 14.441406 14.445312 14.199219 C 14.015625 13.738281 14.046875 13.015625 14.507812 12.59375 C 15.878906 11.328125 17.363281 10.167969 18.917969 9.144531 C 19.441406 8.800781 20.148438 8.949219 20.492188 9.472656 C 20.835938 10 20.691406 10.703125 20.164062 11.046875 C 18.714844 12 17.332031 13.082031 16.050781 14.265625 C 15.832031 14.464844 15.554688 14.566406 15.28125 14.566406 Z M 59.640625 14.492188 C 59.363281 14.492188 59.089844 14.394531 58.871094 14.191406 C 57.589844 13.015625 56.199219 11.9375 54.746094 10.988281 C 54.21875 10.648438 54.070312 9.941406 54.414062 9.414062 C 54.757812 8.890625 55.460938 8.738281 55.988281 9.082031 C 57.546875 10.101562 59.035156 11.253906 60.410156 12.515625 C 60.871094 12.941406 60.902344 13.660156 60.480469 14.125 C 60.253906 14.367188 59.949219 14.492188 59.640625 14.492188 Z M 24.292969 8.652344 C 23.855469 8.652344 23.4375 8.398438 23.25 7.972656 C 22.996094 7.398438 23.257812 6.722656 23.832031 6.472656 C 25.539062 5.71875 27.316406 5.105469 29.125 4.644531 C 29.730469 4.488281 30.351562 4.859375 30.507812 5.46875 C 30.660156 6.078125 30.292969 6.695312 29.683594 6.851562 C 28 7.28125 26.339844 7.851562 24.75 8.554688 C 24.601562 8.621094 24.445312 8.652344 24.292969 8.652344 Z M 50.605469 8.605469 C 50.453125 8.605469 50.296875 8.574219 50.148438 8.507812 C 48.554688 7.8125 46.894531 7.246094 45.207031 6.824219 C 44.597656 6.671875 44.226562 6.054688 44.378906 5.441406 C 44.53125 4.832031 45.152344 4.464844 45.761719 4.617188 C 47.566406 5.070312 49.351562 5.675781 51.0625 6.421875 C 51.636719 6.675781 51.898438 7.347656 51.648438 7.921875 C 51.460938 8.351562 51.042969 8.605469 50.605469 8.605469 Z M 34.734375 5.992188 C 34.152344 5.992188 33.652344 5.542969 33.605469 4.949219 C 33.550781 4.324219 34.015625 3.773438 34.644531 3.722656 C 36.488281 3.566406 38.390625 3.5625 40.234375 3.710938 C 40.863281 3.761719 41.332031 4.3125 41.28125 4.9375 C 41.230469 5.5625 40.679688 6.027344 40.054688 5.980469 C 38.332031 5.84375 36.554688 5.847656 34.832031 5.988281 C 34.800781 5.992188 34.769531 5.992188 34.734375 5.992188 Z M 34.734375 5.992188 "/></g></svg>