<svg xmlns="http://www.w3.org/2000/svg" xmlns:xlink="http://www.w3.org/1999/xlink" width="425" zoomAndPan="magnify" viewBox="0 0 318.75 116.249996" height="155" preserveAspectRatio="xMidYMid meet" version="1.2"><defs/><g id="5df858bf14"><g style="fill:#53b6bf;fill-opacity:1;"><g transform="translate(0.912266, 33.746635)"><path style="stroke:none" d="M 32.050781 -25.65625 L 9.253906 -25.65625 C 5.46875 -25.65625 1.75 -22.582031 1.75 -18.757812 L 1.75 -17.472656 C 1.75 -13.363281 5.109375 -10.613281 9.253906 -10.613281 L 24.476562 -10.578125 C 26.226562 -10.578125 27.121094 -9.828125 27.121094 -8.289062 L 27.121094 -6.96875 C 27.121094 -5.679688 25.761719 -4.609375 24.476562 -4.609375 L 1.679688 -4.609375 L 1.679688 -0.0351562 L 24.476562 -0.0351562 C 28.230469 -0.0351562 31.945312 -3.039062 31.945312 -6.96875 L 31.945312 -8.289062 C 31.945312 -12.328125 28.585938 -15.152344 24.476562 -15.152344 L 9.253906 -15.1875 C 7.503906 -15.1875 6.609375 -15.9375 6.609375 -17.472656 L 6.609375 -18.757812 C 6.609375 -20.011719 7.96875 -21.082031 9.253906 -21.082031 L 32.050781 -21.082031 Z M 32.050781 -25.65625 "/></g></g><g style="fill:#53b6bf;fill-opacity:1;"><g transform="translate(35.498108, 33.746635)"><path style="stroke:none" d="M 32.875 -25.65625 L 28.050781 -25.65625 L 28.050781 -6.96875 C 28.050781 -5.429688 27.15625 -4.679688 25.40625 -4.679688 L 9.253906 -4.679688 C 7.503906 -4.679688 6.609375 -5.429688 6.609375 -6.96875 L 6.609375 -25.65625 L 1.75 -25.65625 L 1.75 -6.96875 C 1.75 -2.894531 5.109375 -0.0351562 9.253906 -0.0351562 L 25.40625 -0.0351562 C 29.445312 -0.0351562 32.875 -2.929688 32.875 -6.96875 Z M 32.875 -25.65625 "/></g></g><g style="fill:#53b6bf;fill-opacity:1;"><g transform="translate(71.334472, 33.746635)"><path style="stroke:none" d="M 32.875 -18.722656 C 32.875 -22.796875 29.480469 -25.621094 25.40625 -25.621094 L 1.570312 -25.621094 L 1.570312 -0.0351562 L 6.394531 -0.0351562 L 6.394531 -21.046875 L 25.40625 -21.046875 C 27.15625 -21.046875 28.050781 -20.261719 28.050781 -18.722656 L 28.050781 -17.332031 C 28.050781 -15.902344 27.15625 -15.1875 25.40625 -15.1875 L 7.898438 -15.1875 L 7.898438 -10.46875 L 25.40625 -10.46875 C 29.480469 -10.46875 32.875 -13.222656 32.875 -17.332031 Z M 32.875 -18.722656 "/></g></g><g style="fill:#53b6bf;fill-opacity:1;"><g transform="translate(106.777821, 33.746635)"><path style="stroke:none" d="M 31.375 -18.722656 C 31.375 -22.832031 27.871094 -25.621094 23.90625 -25.621094 L 8.71875 -25.621094 C 4.753906 -25.621094 1.214844 -22.867188 1.214844 -18.722656 L 1.214844 -6.96875 C 1.214844 -3 4.929688 -0.0351562 8.71875 -0.0351562 L 30.945312 -0.0351562 L 30.945312 -4.609375 L 8.71875 -4.609375 C 7.433594 -4.609375 6.074219 -5.679688 6.074219 -6.96875 L 6.074219 -18.722656 C 6.074219 -20.261719 6.96875 -21.046875 8.71875 -21.046875 L 23.90625 -21.046875 C 25.65625 -21.046875 26.550781 -20.261719 26.550781 -18.722656 L 26.550781 -17.472656 C 26.550781 -16.222656 25.15625 -15.1875 23.90625 -15.1875 L 8.71875 -15.1875 L 8.71875 -10.578125 L 23.90625 -10.578125 C 27.730469 -10.578125 31.375 -13.6875 31.375 -17.472656 Z M 31.375 -18.722656 "/></g></g><g style="fill:#53b6bf;fill-opacity:1;"><g transform="translate(141.363662, 33.746635)"><path style="stroke:none" d="M 32.875 -8.363281 C 32.875 -10.003906 32.230469 -11.507812 30.980469 -12.863281 C 32.230469 -14.1875 32.875 -15.652344 32.875 -17.332031 L 32.875 -18.722656 C 32.875 -22.796875 29.480469 -25.621094 25.40625 -25.621094 L 1.570312 -25.621094 L 1.570312 -0.0351562 L 6.394531 -0.0351562 L 6.394531 -21.046875 L 25.40625 -21.046875 C 27.15625 -21.046875 28.050781 -20.261719 28.050781 -18.722656 L 28.050781 -17.332031 C 28.050781 -15.902344 27.15625 -15.1875 25.40625 -15.1875 L 7.898438 -15.1875 L 7.898438 -10.46875 L 25.40625 -10.46875 C 26.800781 -10.46875 28.050781 -9.683594 28.050781 -8.363281 L 28.050781 -0.0351562 L 32.875 -0.0351562 Z M 32.875 -8.363281 "/></g></g><g style="fill:#2879e8;fill-opacity:1;"><g transform="translate(177.778835, 33.746635)"><path style="stroke:none" d="M 30.910156 -25.65625 L 26.121094 -25.65625 L 26.121094 -15.1875 L 7.398438 -15.1875 L 7.398438 -10.46875 L 26.121094 -10.46875 L 26.121094 -0.0351562 L 30.910156 -0.0351562 Z M 5.894531 -25.65625 L 1.070312 -25.65625 L 1.070312 -0.0351562 L 5.894531 -0.0351562 Z M 5.894531 -25.65625 "/></g></g><g style="fill:#2879e8;fill-opacity:1;"><g transform="translate(211.721549, 33.746635)"><path style="stroke:none" d="M 31.375 -18.722656 C 31.375 -22.832031 27.871094 -25.621094 23.90625 -25.621094 L 8.71875 -25.621094 C 4.753906 -25.621094 1.214844 -22.867188 1.214844 -18.722656 L 1.214844 -6.96875 C 1.214844 -3 4.929688 -0.0351562 8.71875 -0.0351562 L 30.945312 -0.0351562 L 30.945312 -4.609375 L 8.71875 -4.609375 C 7.433594 -4.609375 6.074219 -5.679688 6.074219 -6.96875 L 6.074219 -18.722656 C 6.074219 -20.261719 6.96875 -21.046875 8.71875 -21.046875 L 23.90625 -21.046875 C 25.65625 -21.046875 26.550781 -20.261719 26.550781 -18.722656 L 26.550781 -17.472656 C 26.550781 -16.222656 25.15625 -15.1875 23.90625 -15.1875 L 8.71875 -15.1875 L 8.71875 -10.578125 L 23.90625 -10.578125 C 27.730469 -10.578125 31.375 -13.6875 31.375 -17.472656 Z M 31.375 -18.722656 "/></g></g><g style="fill:#2879e8;fill-opacity:1;"><g transform="translate(246.307391, 33.746635)"><path style="stroke:none" d="M 32.875 -8.363281 C 32.875 -10.003906 32.230469 -11.507812 30.980469 -12.863281 C 32.230469 -14.1875 32.875 -15.652344 32.875 -17.332031 L 32.875 -18.722656 C 32.875 -22.796875 29.480469 -25.621094 25.40625 -25.621094 L 1.570312 -25.621094 L 1.570312 -0.0351562 L 6.394531 -0.0351562 L 6.394531 -21.046875 L 25.40625 -21.046875 C 27.15625 -21.046875 28.050781 -20.261719 28.050781 -18.722656 L 28.050781 -17.332031 C 28.050781 -15.902344 27.15625 -15.1875 25.40625 -15.1875 L 7.898438 -15.1875 L 7.898438 -10.46875 L 25.40625 -10.46875 C 26.800781 -10.46875 28.050781 -9.683594 28.050781 -8.363281 L 28.050781 -0.0351562 L 32.875 -0.0351562 Z M 32.875 -8.363281 "/></g></g><g style="fill:#2879e8;fill-opacity:1;"><g transform="translate(282.715421, 33.746635)"><path style="stroke:none" d="M 32.875 -18.757812 C 32.875 -22.582031 29.121094 -25.65625 25.40625 -25.65625 L 9.253906 -25.65625 C 5.46875 -25.65625 1.75 -22.582031 1.75 -18.757812 L 1.75 -6.96875 C 1.75 -2.894531 5.109375 -0.0351562 9.253906 -0.0351562 L 25.40625 -0.0351562 C 29.445312 -0.0351562 32.875 -2.929688 32.875 -6.96875 Z M 28.050781 -6.96875 C 28.050781 -5.429688 27.15625 -4.679688 25.40625 -4.679688 L 9.253906 -4.679688 C 7.503906 -4.679688 6.609375 -5.429688 6.609375 -6.96875 L 6.609375 -18.757812 C 6.609375 -20.011719 7.96875 -21.082031 9.253906 -21.082031 L 25.40625 -21.082031 C 26.691406 -21.082031 28.050781 -20.011719 28.050781 -18.757812 Z M 28.050781 -6.96875 "/></g></g><g style="fill:#6dc8cb;fill-opacity:1;"><g transform="translate(0.907324, 97.117741)"><path style="stroke:none" d="M 67.695312 -54.1875 L 19.546875 -54.1875 C 11.546875 -54.1875 3.699219 -47.695312 3.699219 -39.621094 L 3.699219 -36.90625 C 3.699219 -28.226562 10.792969 -22.414062 19.546875 -22.414062 L 51.695312 -22.339844 C 55.394531 -22.339844 57.28125 -20.753906 57.28125 -17.507812 L 57.28125 -14.714844 C 57.28125 -12 54.414062 -9.734375 51.695312 -9.734375 L 3.546875 -9.734375 L 3.546875 -0.0742188 L 51.695312 -0.0742188 C 59.621094 -0.0742188 67.46875 -6.414062 67.46875 -14.714844 L 67.46875 -17.507812 C 67.46875 -26.035156 60.375 -32 51.695312 -32 L 19.546875 -32.074219 C 15.847656 -32.074219 13.960938 -33.660156 13.960938 -36.90625 L 13.960938 -39.621094 C 13.960938 -42.261719 16.828125 -44.527344 19.546875 -44.527344 L 67.695312 -44.527344 Z M 67.695312 -54.1875 "/></g></g><g style="fill:#6dc8cb;fill-opacity:1;"><g transform="translate(73.953611, 97.117741)"><path style="stroke:none" d="M 90.488281 -54.113281 L 80.222656 -54.113281 L 80.222656 -14.566406 C 80.222656 -11.320312 78.335938 -9.734375 74.640625 -9.734375 L 67.621094 -9.734375 C 63.921875 -9.734375 62.035156 -11.320312 62.035156 -14.566406 L 62.035156 -39.546875 C 62.035156 -48.226562 54.714844 -54.113281 46.113281 -54.113281 C 37.582031 -54.113281 30.414062 -48.226562 30.339844 -39.546875 L 30.1875 -14.566406 C 30.1875 -11.320312 28.300781 -9.734375 24.601562 -9.734375 L 17.660156 -9.734375 C 13.960938 -9.734375 12.074219 -11.320312 12.074219 -14.566406 L 12.074219 -54.113281 L 1.886719 -54.113281 L 1.886719 -14.566406 C 1.886719 -6.1875 8.753906 -0.0742188 17.660156 -0.0742188 L 24.601562 -0.0742188 C 33.433594 -0.0742188 40.453125 -5.960938 40.453125 -14.566406 L 40.527344 -39.546875 C 40.527344 -42.792969 42.414062 -44.453125 46.113281 -44.453125 C 49.886719 -44.453125 51.773438 -42.792969 51.773438 -39.546875 L 51.773438 -14.566406 C 51.773438 -5.960938 58.867188 -0.0742188 67.621094 -0.0742188 L 74.640625 -0.0742188 C 83.242188 -0.0742188 90.488281 -6.039062 90.488281 -14.566406 Z M 90.488281 -54.113281 "/></g></g><g style="fill:#6dc8cb;fill-opacity:1;"><g transform="translate(170.543749, 97.117741)"><path style="stroke:none" d="M 67.015625 -39.621094 C 67.015625 -47.621094 59.320312 -54.1875 51.242188 -54.1875 L 4.378906 -54.1875 L 4.378906 -44.527344 L 51.242188 -44.527344 C 53.960938 -44.527344 56.902344 -42.261719 56.902344 -39.621094 L 56.902344 -14.714844 C 56.902344 -11.472656 55.015625 -9.886719 51.242188 -9.886719 L 19.246094 -9.886719 C 15.546875 -9.886719 13.660156 -11.472656 13.660156 -14.714844 L 13.660156 -17.28125 C 13.660156 -20 16.527344 -22.1875 19.246094 -22.1875 L 51.242188 -22.1875 L 51.242188 -31.921875 L 19.246094 -31.921875 C 11.320312 -31.921875 3.472656 -25.507812 3.472656 -17.28125 L 3.472656 -14.714844 C 3.472656 -6.113281 10.640625 -0.0742188 19.246094 -0.0742188 L 51.242188 -0.0742188 C 59.921875 -0.0742188 67.015625 -6.113281 67.015625 -14.714844 Z M 67.015625 -39.621094 "/></g></g><g style="fill:#6dc8cb;fill-opacity:1;"><g transform="translate(243.590026, 97.117741)"><path style="stroke:none" d="M 69.433594 -39.546875 C 69.433594 -48.148438 62.261719 -54.113281 53.660156 -54.113281 L 3.320312 -54.113281 L 3.320312 -0.0742188 L 13.507812 -0.0742188 L 13.507812 -44.453125 L 53.660156 -44.453125 C 57.355469 -44.453125 59.242188 -42.792969 59.242188 -39.546875 L 59.242188 -36.601562 C 59.242188 -33.582031 57.355469 -32.074219 53.660156 -32.074219 L 16.679688 -32.074219 L 16.679688 -22.113281 L 53.660156 -22.113281 C 62.261719 -22.113281 69.433594 -27.921875 69.433594 -36.601562 Z M 69.433594 -39.546875 "/></g></g></g></svg>