<svg xmlns="http://www.w3.org/2000/svg" width="400" height="146" version="1.2" viewBox="0 0 300 109.5"><g style="fill:#53b6bf;fill-opacity:1"><path d="M30.2-24.2H8.7c-3.5 0-7 2.9-7 6.5v1.2c0 3.9 3.1 6.5 7 6.5h14.4c1.6 0 2.5.7 2.5 2.2v1.2c0 1.2-1.3 2.2-2.5 2.2H1.6V0H23c3.5 0 7-2.9 7-6.6v-1.2c0-3.8-3.1-6.5-7-6.5H8.7c-1.6 0-2.5-.7-2.5-2.2v-1.2c0-1.2 1.3-2.2 2.5-2.2h21.5Zm0 0" style="stroke:none" transform="translate(.7 31.8)"/></g><g style="fill:#53b6bf;fill-opacity:1"><path d="M31-24.2h-4.5v17.6c0 1.5-.9 2.2-2.5 2.2H8.7c-1.6 0-2.5-.7-2.5-2.2v-17.6H1.7v17.6c0 3.9 3.1 6.6 7 6.6H24c3.8 0 7-2.8 7-6.6Zm0 0" style="stroke:none" transform="translate(33.3 31.8)"/></g><g style="fill:#53b6bf;fill-opacity:1"><path d="M31-17.7c0-3.8-3.2-6.5-7-6.5H1.5V0H6V-20h18c1.6 0 2.5.8 2.5 2.2v1.3c0 1.4-.9 2-2.5 2H7.5v4.5H24c3.8 0 7-2.6 7-6.5Zm0 0" style="stroke:none" transform="translate(67.2 31.8)"/></g><g style="fill:#53b6bf;fill-opacity:1"><path d="M29.6-17.7c0-3.8-3.3-6.5-7-6.5H8.2c-3.7 0-7 2.6-7 6.5v11.1c0 3.8 3.5 6.6 7 6.6h21v-4.4h-21c-1.2 0-2.5-1-2.5-2.2v-11c0-1.5.9-2.3 2.5-2.3h14.4c1.6 0 2.5.8 2.5 2.2v1.2c0 1.2-1.4 2.2-2.5 2.2H8.2v4.3h14.4c3.6 0 7-3 7-6.5Zm0 0" style="stroke:none" transform="translate(100.6 31.8)"/></g><g style="fill:#53b6bf;fill-opacity:1"><path d="M31-7.9c0-1.5-.6-3-1.8-4.2a6 6 0 0 0 1.8-4.3v-1.3c0-3.8-3.2-6.5-7-6.5H1.5V0H6V-20h18c1.6 0 2.5.8 2.5 2.2v1.3c0 1.4-.9 2-2.5 2H7.5v4.5H24c1.3 0 2.5.8 2.5 2V0H31Zm0 0" style="stroke:none" transform="translate(133.2 31.8)"/></g><g style="fill:#53b6bf;fill-opacity:1"><path d="M29.2-24.2h-4.6v9.9H7v4.4h17.6V0h4.6Zm-23.6 0H1V0h4.6Zm0 0" style="stroke:none" transform="translate(167.6 31.8)"/></g><g style="fill:#53b6bf;fill-opacity:1"><path d="M29.6-17.7c0-3.8-3.3-6.5-7-6.5H8.2c-3.7 0-7 2.6-7 6.5v11.1c0 3.8 3.5 6.6 7 6.6h21v-4.4h-21c-1.2 0-2.5-1-2.5-2.2v-11c0-1.5.9-2.3 2.5-2.3h14.4c1.6 0 2.5.8 2.5 2.2v1.2c0 1.2-1.4 2.2-2.5 2.2H8.2v4.3h14.4c3.6 0 7-3 7-6.5Zm0 0" style="stroke:none" transform="translate(199.6 31.8)"/></g><g style="fill:#53b6bf;fill-opacity:1"><path d="M31-7.9c0-1.5-.6-3-1.8-4.2a6 6 0 0 0 1.8-4.3v-1.3c0-3.8-3.2-6.5-7-6.5H1.5V0H6V-20h18c1.6 0 2.5.8 2.5 2.2v1.3c0 1.4-.9 2-2.5 2H7.5v4.5H24c1.3 0 2.5.8 2.5 2V0H31Zm0 0" style="stroke:none" transform="translate(232.3 31.8)"/></g><g style="fill:#53b6bf;fill-opacity:1"><path d="M31-17.7c0-3.6-3.5-6.5-7-6.5H8.7c-3.5 0-7 2.9-7 6.5v11.1c0 3.9 3.1 6.6 7 6.6H24c3.8 0 7-2.8 7-6.6ZM26.5-6.6c0 1.5-.9 2.2-2.5 2.2H8.7c-1.6 0-2.5-.7-2.5-2.2v-11.1c0-1.2 1.3-2.2 2.5-2.2H24c1.2 0 2.5 1 2.5 2.2Zm0 0" style="stroke:none" transform="translate(266.6 31.8)"/></g><g style="fill:#53b6bf;fill-opacity:1"><path d="M63.9-51.1H18.4c-7.5 0-15 6-15 13.7v2.6c0 8.2 6.8 13.6 15 13.6l30.4.1c3.5 0 5.3 1.5 5.3 4.6v2.6c0 2.6-2.8 4.7-5.3 4.7H3.3V0h45.5c7.5 0 14.9-6 14.9-13.8v-2.6c0-8-6.7-13.7-15-13.7H18.5c-3.4 0-5.2-1.6-5.2-4.6v-2.6c0-2.5 2.7-4.6 5.2-4.6H64Zm0 0" style="stroke:none" transform="translate(.7 91.6)"/></g><g style="fill:#53b6bf;fill-opacity:1"><path d="M85.4-51h-9.7v37.3c0 3-1.8 4.5-5.3 4.5h-6.6c-3.5 0-5.3-1.5-5.3-4.5v-23.6c0-8.2-6.9-13.8-15-13.8-8 0-14.8 5.6-14.9 13.8l-.1 23.6c0 3-1.8 4.5-5.3 4.5h-6.5c-3.5 0-5.3-1.5-5.3-4.5v-37.4H1.8v37.4C1.8-5.8 8.3-.1 16.7-.1h6.5c8.4 0 15-5.5 15-13.6v-23.6c0-3 1.8-4.6 5.3-4.6 3.6 0 5.4 1.5 5.4 4.6v23.6c0 8 6.7 13.6 15 13.6h6.5c8.2 0 15-5.6 15-13.6Zm0 0" style="stroke:none" transform="translate(69.6 91.6)"/></g><g style="fill:#53b6bf;fill-opacity:1"><path d="M63.2-37.4C63.2-44.9 56-51 48.4-51H4v9h44.3c2.5 0 5.3 2.2 5.3 4.7v23.5c0 3-1.8 4.6-5.3 4.6H18.2c-3.5 0-5.3-1.5-5.3-4.6v-2.4c0-2.6 2.7-4.6 5.3-4.6h30.2v-9.2H18.2c-7.5 0-15 6-15 13.8v2.4C3.3-5.8 10 0 18.3 0h30.2c8.1 0 14.8-5.7 14.8-13.8Zm0 0" style="stroke:none" transform="translate(160.8 91.6)"/></g><g style="fill:#53b6bf;fill-opacity:1"><path d="M65.5-37.3c0-8.1-6.7-13.8-14.9-13.8H3.1V0h9.7v-41.8h37.8c3.5 0 5.3 1.5 5.3 4.6v2.8c0 2.8-1.8 4.2-5.3 4.2H15.7v9.4h35c8 0 14.8-5.5 14.8-13.6Zm0 0" style="stroke:none" transform="translate(229.7 91.6)"/></g></svg>