<svg width="126" height="25" viewBox="0 0 126 25" fill="none" xmlns="http://www.w3.org/2000/svg">
<path fill-rule="evenodd" clip-rule="evenodd" d="M12.2135 1.34155C13.8502 1.39203 15.302 1.61792 16.5709 2.01726L17.1008 2.20076C18.1496 2.58809 19.059 3.08794 19.8311 3.69937L20.153 3.96794L20.4955 4.28525C21.2626 5.04053 21.8559 5.93667 22.2757 6.97567V6.97758C22.6434 7.87116 22.873 8.85032 22.9598 9.9165L22.9882 10.3781L23 10.9219V18.9101H0V10.92C1.88646e-05 9.6404 0.185525 8.47514 0.553507 7.42201L0.722308 6.97758L0.723289 6.97567C1.20286 5.78883 1.92179 4.78786 2.87843 3.96985L2.88138 3.96603C3.81537 3.12732 5.00725 2.47604 6.46053 2.01822L7.00815 1.85765C8.31234 1.50751 9.80888 1.33008 11.5 1.33008L12.2135 1.34155ZM9.61376 4.8759C7.57633 4.87595 5.964 5.3535 4.81277 6.34201L4.58901 6.54654C3.4348 7.66598 2.86474 9.13193 2.8647 10.92C2.8647 13.5223 2.39039 16 5.0625 16H18.0625C20.5625 16 20.1343 13.5223 20.1343 10.92L20.1284 10.6094C20.0737 9.1738 19.6358 7.95531 18.8045 6.96803L18.62 6.75967L18.6181 6.75776L18.413 6.54845L18.411 6.54654L18.1872 6.34201C17.0359 5.35346 15.4228 4.87592 13.3853 4.8759H9.61376Z" fill="#00D3A1"/>
<path d="M35.5672 1.22998V4.21321H27.212V8.436H34.3769V11.393H27.212V15.8239H35.5672V18.4929V18.8071H23.7939V1.22998H35.5672Z" fill="#00D3A1"/>
<path d="M40.2289 1.22998L43.6741 7.21867L43.7183 7.29645L43.7485 7.34798H44.1214L44.1516 7.29746L44.1968 7.22069L47.6913 1.22998H51.3185L46.0084 9.64627L46.0074 9.64727L45.9551 9.73112L45.921 9.78568L45.9561 9.84124L46.0084 9.92408L51.6291 18.8071H47.6923L43.8601 12.2719L43.8148 12.1951L43.7847 12.1456H43.4117L43.3815 12.1971L43.3373 12.2749L39.6086 18.8071H35.9688L36.0809 18.6404L41.58 9.76143L41.6142 9.70688L41.579 9.65132L36.2679 1.22998H40.2289Z" fill="#00D3A1"/>
<path d="M119.115 19.0714C118.121 19.0714 117.231 18.9121 116.443 18.5934C115.672 18.2579 115.013 17.7967 114.465 17.2096C113.934 16.6057 113.523 15.8845 113.232 15.0458C112.941 14.1903 112.796 13.2343 112.796 12.1775C112.796 11.1376 112.933 10.1982 113.207 9.35957C113.498 8.52089 113.909 7.80802 114.44 7.22094C114.97 6.6171 115.621 6.15583 116.392 5.83713C117.162 5.50166 118.036 5.33392 119.012 5.33392C120.056 5.33392 120.964 5.51005 121.735 5.86229C122.505 6.21453 123.139 6.69258 123.635 7.29643C124.132 7.90027 124.5 8.60476 124.74 9.40989C124.997 10.1982 125.125 11.0453 125.125 11.9511V13.0078H116.212V13.3349C116.212 14.291 116.486 15.0626 117.034 15.6496C117.582 16.2199 118.395 16.5051 119.474 16.5051C120.296 16.5051 120.964 16.3374 121.478 16.0019C122.009 15.6664 122.48 15.2387 122.89 14.7187L124.663 16.6561C124.115 17.4109 123.361 18.0063 122.402 18.4424C121.461 18.8618 120.365 19.0714 119.115 19.0714ZM119.063 7.74931C118.19 7.74931 117.496 8.03446 116.983 8.60476C116.469 9.17506 116.212 9.9131 116.212 10.8189V11.0202H121.709V10.7937C121.709 9.88794 121.478 9.15829 121.015 8.60476C120.57 8.03446 119.919 7.74931 119.063 7.74931Z" fill="white"/>
<path d="M112.203 19.8765C112.203 20.5642 112.075 21.1681 111.818 21.6881C111.578 22.2248 111.176 22.6693 110.611 23.0216C110.045 23.3738 109.318 23.6422 108.427 23.8267C107.537 24.0112 106.449 24.1034 105.165 24.1034C104.035 24.1034 103.076 24.028 102.288 23.877C101.5 23.7428 100.85 23.5415 100.336 23.2732C99.8392 23.0216 99.4795 22.7029 99.2569 22.3171C99.0343 21.9313 98.923 21.4952 98.923 21.0087C98.923 20.2707 99.1285 19.692 99.5395 19.2727C99.9676 18.8701 100.558 18.6101 101.312 18.4927V18.2159C100.764 18.0817 100.336 17.8218 100.028 17.436C99.7364 17.0334 99.5908 16.5637 99.5908 16.027C99.5908 15.6915 99.6593 15.398 99.7963 15.1464C99.9333 14.878 100.113 14.6516 100.336 14.4671C100.576 14.2825 100.841 14.1316 101.132 14.0142C101.423 13.88 101.731 13.7793 102.057 13.7122V13.6116C101.235 13.2426 100.618 12.731 100.207 12.0768C99.8135 11.4227 99.6165 10.6595 99.6165 9.78723C99.6165 8.44535 100.087 7.37185 101.029 6.56672C101.971 5.74481 103.35 5.33386 105.165 5.33386C105.576 5.33386 105.978 5.35902 106.372 5.40934C106.783 5.45966 107.16 5.54353 107.502 5.66094V5.23322C107.502 3.95843 108.136 3.32104 109.403 3.32104H111.484V5.78675H108.633V6.13899C109.335 6.52478 109.857 7.02799 110.2 7.64861C110.542 8.26923 110.713 8.9821 110.713 9.78723C110.713 11.1123 110.242 12.1775 109.3 12.9826C108.376 13.7877 106.997 14.1903 105.165 14.1903C104.377 14.1903 103.692 14.1148 103.11 13.9638C102.853 14.0813 102.63 14.2406 102.442 14.4419C102.254 14.6264 102.16 14.8612 102.16 15.1464C102.16 15.8005 102.742 16.1276 103.906 16.1276H107.502C109.146 16.1276 110.337 16.4631 111.073 17.134C111.826 17.7882 112.203 18.7024 112.203 19.8765ZM109.121 20.2539C109.121 19.8346 108.949 19.5075 108.607 19.2727C108.264 19.0378 107.674 18.9204 106.835 18.9204H102.262C101.8 19.2559 101.569 19.7088 101.569 20.2791C101.569 20.7823 101.783 21.1765 102.211 21.4616C102.639 21.7468 103.367 21.8893 104.394 21.8893H106.038C107.117 21.8893 107.896 21.7552 108.376 21.4868C108.872 21.2184 109.121 20.8074 109.121 20.2539ZM105.165 12.0013C106.775 12.0013 107.579 11.3304 107.579 9.98852V9.56079C107.579 8.21891 106.775 7.54797 105.165 7.54797C103.555 7.54797 102.75 8.21891 102.75 9.56079V9.98852C102.75 11.3304 103.555 12.0013 105.165 12.0013Z" fill="white"/>
<path d="M93.2819 16.5806H93.1535C92.9137 17.3354 92.4599 17.9392 91.7921 18.3921C91.1242 18.845 90.345 19.0715 89.4545 19.0715C87.7592 19.0715 86.4577 18.476 85.5501 17.2851C84.6597 16.0942 84.2144 14.3916 84.2144 12.1775C84.2144 9.9802 84.6597 8.29447 85.5501 7.12032C86.4577 5.9294 87.7592 5.33394 89.4545 5.33394C90.345 5.33394 91.1242 5.56038 91.7921 6.01326C92.4599 6.44938 92.9137 7.04484 93.1535 7.79964H93.2819V0.150913H96.5698V18.7695H93.2819V16.5806ZM90.5077 16.4045C91.2955 16.4045 91.9547 16.22 92.4856 15.8509C93.0165 15.4819 93.2819 14.9536 93.2819 14.2658V10.0892C93.2819 9.45184 93.0165 8.94025 92.4856 8.55446C91.9547 8.16866 91.2955 7.97577 90.5077 7.97577C89.6515 7.97577 88.9579 8.26092 88.4271 8.83122C87.9133 9.38474 87.6565 10.1312 87.6565 11.0705V13.3349C87.6565 14.2742 87.9133 15.0207 88.4271 15.5742C88.9579 16.1277 89.6515 16.4045 90.5077 16.4045Z" fill="white"/>
<path d="M79.7612 3.72372C79.0762 3.72372 78.5796 3.57276 78.2714 3.27084C77.9802 2.96892 77.8347 2.58312 77.8347 2.11346V1.61026C77.8347 1.1406 77.9802 0.754809 78.2714 0.452885C78.5796 0.150962 79.0762 0 79.7612 0C80.4291 0 80.9171 0.150962 81.2253 0.452885C81.5336 0.754809 81.6877 1.1406 81.6877 1.61026V2.11346C81.6877 2.58312 81.5336 2.96892 81.2253 3.27084C80.9171 3.57276 80.4291 3.72372 79.7612 3.72372ZM78.1172 5.63591H81.4052V18.7696H78.1172V5.63591Z" fill="white"/>
<path d="M68.2899 18.7695V5.63587H71.5779V8.35318H71.7063C71.7919 8.00093 71.9203 7.66546 72.0916 7.34677C72.28 7.0113 72.5197 6.71776 72.8108 6.46616C73.1019 6.21455 73.4444 6.01327 73.8383 5.86231C74.2493 5.71135 74.7202 5.63587 75.2511 5.63587H75.9703V8.68026H74.9428C73.8297 8.68026 72.9906 8.83961 72.4255 9.15831C71.8604 9.47701 71.5779 9.99699 71.5779 10.7182V18.7695H68.2899Z" fill="white"/>
<path d="M51.7197 1.2079H60.0166C60.7529 1.2079 61.4122 1.31693 61.9945 1.53498C62.5938 1.75304 63.099 2.05496 63.51 2.44075C63.921 2.82654 64.2292 3.30459 64.4347 3.87489C64.6574 4.42842 64.7687 5.04065 64.7687 5.71159C64.7687 6.38253 64.6745 6.95283 64.4861 7.42249C64.3149 7.87538 64.0751 8.25278 63.7669 8.5547C63.4758 8.85663 63.1333 9.08307 62.7394 9.23403C62.3627 9.385 61.9688 9.46886 61.5578 9.48564V9.6366C61.9517 9.6366 62.3712 9.71208 62.8165 9.86304C63.2788 10.014 63.6984 10.2572 64.0751 10.5927C64.469 10.9114 64.7944 11.3307 65.0512 11.8507C65.3081 12.3539 65.4365 12.9829 65.4365 13.7377C65.4365 14.4422 65.3167 15.1048 65.0769 15.7254C64.8543 16.3292 64.5375 16.8576 64.1265 17.3105C63.7155 17.7634 63.2275 18.124 62.6623 18.3924C62.0972 18.644 61.4807 18.7698 60.8129 18.7698H51.7197V1.2079ZM55.1104 15.9518H59.8368C60.4875 15.9518 60.9927 15.7925 61.3523 15.4738C61.7119 15.1383 61.8917 14.6603 61.8917 14.0397V13.1842C61.8917 12.5636 61.7119 12.0855 61.3523 11.7501C60.9927 11.4146 60.4875 11.2469 59.8368 11.2469H55.1104V15.9518ZM55.1104 8.52955H59.2974C59.9138 8.52955 60.3933 8.3702 60.7358 8.0515C61.0783 7.71603 61.2496 7.25476 61.2496 6.66768V5.88771C61.2496 5.30064 61.0783 4.84775 60.7358 4.52906C60.3933 4.19359 59.9138 4.02585 59.2974 4.02585H55.1104V8.52955Z" fill="white"/>
<path d="M7.88347 7.5L8.19533 7.51643L8.50378 7.56556L8.80544 7.64683L9.09699 7.75936L9.37525 7.90192L9.63716 8.07295L9.87986 8.27057L10.1007 8.49261L10.2972 8.73664L10.4673 9L10.6091 9.27979L10.721 9.57295L10.8018 9.87627L10.8507 10.1864L10.867 10.5L10.8507 10.8136L10.8018 11.1237L10.721 11.4271L10.6091 11.7202L10.4673 12L10.2972 12.2634L10.1007 12.5074L9.87986 12.7294L9.63716 12.9271L9.37525 13.0981L9.09699 13.2406L8.80544 13.3532L8.50378 13.4344L8.19533 13.4836L7.88347 13.5L7.5716 13.4836L7.26315 13.4344L6.96149 13.3532L6.66994 13.2406L6.39168 13.0981L6.12977 12.9271L5.88707 12.7294L5.66625 12.5074L5.46971 12.2634L5.29962 12L5.15785 11.7202L5.04593 11.4271L4.9651 11.1237L4.91625 10.8136L4.8999 10.5L4.91625 10.1864L4.9651 9.87627L5.04593 9.57295L5.15785 9.27979L5.29962 9L5.46971 8.73664L5.66625 8.49261L5.88707 8.27057L6.12977 8.07295L6.39168 7.90192L6.66994 7.75936L6.96149 7.64683L7.26315 7.56556L7.5716 7.51643L7.88347 7.5Z" fill="#00D3A1"/>
<path d="M15.4211 7.5L15.7329 7.51643L16.0414 7.56556L16.343 7.64683L16.6346 7.75936L16.9128 7.90192L17.1748 8.07295L17.4175 8.27057L17.6383 8.49261L17.8348 8.73664L18.0049 9L18.1467 9.27979L18.2586 9.57295L18.3394 9.87627L18.3883 10.1864L18.4046 10.5L18.3883 10.8136L18.3394 11.1237L18.2586 11.4271L18.1467 11.7202L18.0049 12L17.8348 12.2634L17.6383 12.5074L17.4175 12.7294L17.1748 12.9271L16.9128 13.0981L16.6346 13.2406L16.343 13.3532L16.0414 13.4344L15.7329 13.4836L15.4211 13.5L15.1092 13.4836L14.8007 13.4344L14.4991 13.3532L14.2075 13.2406L13.9293 13.0981L13.6674 12.9271L13.4247 12.7294L13.2038 12.5074L13.0073 12.2634L12.8372 12L12.6954 11.7202L12.5835 11.4271L12.5027 11.1237L12.4538 10.8136L12.4375 10.5L12.4538 10.1864L12.5027 9.87627L12.5835 9.57295L12.6954 9.27979L12.8372 9L13.0073 8.73664L13.2038 8.49261L13.4247 8.27057L13.6674 8.07295L13.9293 7.90192L14.2075 7.75936L14.4991 7.64683L14.8007 7.56556L15.1092 7.51643L15.4211 7.5Z" fill="#00D3A1"/>
</svg>